<?xml version="1.0" encoding="UTF-8"?>
<svg version="1.1" xmlns="http://www.w3.org/2000/svg" width="210" height="240">
<path d="M0 0 C1.07765625 0.62519531 2.1553125 1.25039062 3.265625 1.89453125 C3.88864502 2.24837891 4.51166504 2.60222656 5.15356445 2.96679688 C7.2889887 4.18983836 9.40236582 5.44610914 11.515625 6.70703125 C13.13896167 7.66207263 14.76267732 8.61647006 16.38671875 9.5703125 C19.08607918 11.160281 21.78271474 12.7544303 24.47436523 14.35742188 C32.20755412 18.96124481 40.0066836 23.44320205 47.828125 27.89453125 C56.95861373 33.09252541 66.06016201 38.33302091 75.09765625 43.69140625 C77.4935348 45.10429006 79.89517827 46.49179476 82.31640625 47.859375 C85.36652112 49.62091875 87.42176767 50.88837715 89.515625 53.70703125 C90.60233866 59.26956439 90.66379837 64.7295269 90.66088867 70.37084961 C90.66424728 71.31487137 90.6676059 72.25889313 90.67106628 73.23152161 C90.68052651 76.33665297 90.68251676 79.44173014 90.68359375 82.546875 C90.68680922 84.71488975 90.69017351 86.88290428 90.69367981 89.05091858 C90.69965836 93.589208 90.70152096 98.12747841 90.70092773 102.66577148 C90.70082606 108.4705065 90.71448925 114.27511934 90.73169994 120.0798254 C90.74283632 124.55547136 90.74484645 129.0310879 90.74431801 133.50674629 C90.74549523 135.64648422 90.74990247 137.78622297 90.75765038 139.92594719 C90.76748539 142.92199065 90.76455855 145.91777034 90.75854492 148.91381836 C90.76416443 149.79043121 90.76978394 150.66704407 90.77557373 151.57022095 C90.74307773 157.96537929 90.26396479 163.91847743 86.78686523 169.46435547 C84.11911967 172.0985499 81.45013829 173.76298565 78.17578125 175.58984375 C77.57181015 175.93079071 76.96783905 176.27173767 76.3455658 176.62301636 C74.4284053 177.70251876 72.50364614 178.76752727 70.578125 179.83203125 C69.28916951 180.5537167 68.00075239 181.27636458 66.71289062 182 C64.34189043 183.33181197 61.96754736 184.65671443 59.59008789 185.97705078 C56.86800665 187.50874836 54.18801271 189.09083847 51.515625 190.70703125 C50.20398111 191.46986882 48.89022787 192.22909303 47.57421875 192.984375 C39.07039192 197.8788307 30.60564577 202.8278306 22.203125 207.89453125 C-4.9356089 224.2430393 -4.9356089 224.2430393 -13.484375 222.70703125 C-17.70610783 220.7196577 -21.55040363 218.20584101 -25.484375 215.70703125 C-27.20453282 214.75310217 -28.93362966 213.8150891 -30.671875 212.89453125 C-40.44311932 207.60821778 -49.95404275 201.84500496 -59.4621582 196.10253906 C-65.13259357 192.6788249 -70.84128555 189.3687859 -76.67578125 186.23046875 C-84.47060408 182.00240073 -92.16813202 177.58194679 -99.734375 172.95703125 C-100.60578125 172.4259375 -101.4771875 171.89484375 -102.375 171.34765625 C-105.66086731 168.79198168 -106.30307286 166.73044388 -107.02215576 162.67137146 C-107.55493052 158.10189395 -107.63966126 153.63860391 -107.64550781 149.04321289 C-107.65047272 148.09919113 -107.65543762 147.15516937 -107.66055298 146.18254089 C-107.67509017 143.07741554 -107.6819612 139.97234121 -107.6875 136.8671875 C-107.69325683 134.69917297 -107.69901449 132.53115845 -107.70477295 130.36314392 C-107.7152578 125.82485722 -107.72111743 121.28658811 -107.72460938 116.74829102 C-107.73009969 110.94350395 -107.75414998 105.13895076 -107.78258133 99.3342371 C-107.8012328 94.85858993 -107.80641457 90.38299895 -107.80794525 85.90731621 C-107.81096481 83.76756952 -107.81896971 81.62782366 -107.83213043 79.48811531 C-107.84924907 76.49197812 -107.84729679 73.49641085 -107.84082031 70.50024414 C-107.8500351 69.62363129 -107.85924988 68.74701843 -107.8687439 67.84384155 C-107.8274796 61.7275855 -107.15607793 55.82017936 -103.00529861 50.98356724 C-101.484375 49.70703125 -101.484375 49.70703125 -99.484375 49.70703125 C-99.484375 49.04703125 -99.484375 48.38703125 -99.484375 47.70703125 C-97.52852175 46.70218921 -95.56961263 45.7032932 -93.609375 44.70703125 C-92.51882812 44.15015625 -91.42828125 43.59328125 -90.3046875 43.01953125 C-87.484375 41.70703125 -87.484375 41.70703125 -85.484375 41.70703125 C-85.484375 41.04703125 -85.484375 40.38703125 -85.484375 39.70703125 C-84.48083984 39.23136719 -84.48083984 39.23136719 -83.45703125 38.74609375 C-75.03758729 34.65503507 -67.04862097 29.9944348 -59.01269531 25.20654297 C-53.20413608 21.76156703 -47.36631135 18.36578999 -41.52197266 14.98193359 C-36.66859938 12.16875319 -31.84286927 9.32841262 -27.078125 6.3671875 C-26.23620605 5.85341553 -25.39428711 5.33964355 -24.52685547 4.81030273 C-22.97315071 3.86022373 -21.42942251 2.89352422 -19.89892578 1.90649414 C-13.29944544 -2.08457684 -7.27701487 -2.70032727 0 0 Z M-61.6171875 63.3359375 C-76.53223038 80.24398176 -79.81332108 100.82556484 -78.484375 122.70703125 C-77.88314483 126.58850247 -76.92477944 130.0596552 -75.484375 133.70703125 C-75.04931641 134.84785156 -75.04931641 134.84785156 -74.60546875 136.01171875 C-67.24607747 153.80974453 -54.30013963 167.20343546 -36.984375 175.58203125 C-19.88535546 182.66171126 0.1717933 183.43063121 17.515625 176.70703125 C31.56042284 170.87326268 44.45227685 160.78431589 52.515625 147.70703125 C52.515625 147.04703125 52.515625 146.38703125 52.515625 145.70703125 C50.865625 145.37703125 49.215625 145.04703125 47.515625 144.70703125 C47.515625 144.04703125 47.515625 143.38703125 47.515625 142.70703125 C44.86823584 141.24640275 43.62114166 140.70703125 40.515625 140.70703125 C40.515625 140.04703125 40.515625 139.38703125 40.515625 138.70703125 C39.06024932 137.86854321 37.60122127 137.03639191 36.140625 136.20703125 C35.32851562 135.74296875 34.51640625 135.27890625 33.6796875 134.80078125 C31.62225626 133.55667266 31.62225626 133.55667266 29.515625 133.70703125 C27.21913851 136.26849695 26.515625 137.18670697 26.515625 140.70703125 C24.535625 141.69703125 24.535625 141.69703125 22.515625 142.70703125 C22.515625 143.36703125 22.515625 144.02703125 22.515625 144.70703125 C21.79761719 144.97515625 21.07960938 145.24328125 20.33984375 145.51953125 C17.49899805 146.71402239 14.97927584 148.14062012 12.328125 149.70703125 C1.24282635 155.79948761 -10.46718757 156.047578 -22.52734375 152.75 C-33.60968699 148.84116824 -43.05716744 141.13915644 -48.484375 130.70703125 C-53.93022908 117.70779442 -54.01103692 105.2713685 -48.796875 92.26953125 C-44.67692305 83.45192191 -38.26196236 76.09582493 -29.484375 71.70703125 C-29.484375 71.04703125 -29.484375 70.38703125 -29.484375 69.70703125 C-28.88109375 69.57425781 -28.2778125 69.44148438 -27.65625 69.3046875 C-26.85703125 69.12808594 -26.0578125 68.95148438 -25.234375 68.76953125 C-24.44546875 68.59550781 -23.6565625 68.42148438 -22.84375 68.2421875 C-21.44761753 67.92551507 -20.05707056 67.57698207 -18.6875 67.16015625 C-8.55135122 65.07541643 3.33030782 65.92383317 12.515625 70.70703125 C15.34074755 72.71023046 17.9640479 74.80045479 20.5546875 77.09765625 C22.35048999 78.91850158 22.35048999 78.91850158 24.515625 78.70703125 C24.515625 79.36703125 24.515625 80.02703125 24.515625 80.70703125 C25.175625 80.70703125 25.835625 80.70703125 26.515625 80.70703125 C26.9178125 81.88265625 26.9178125 81.88265625 27.328125 83.08203125 C28.36376932 85.98818048 28.36376932 85.98818048 31.515625 87.70703125 C41.910625 81.76703125 41.910625 81.76703125 52.515625 75.70703125 C49.99002634 69.39303461 46.13252466 65.5912251 41.515625 60.70703125 C40.71125 59.82015625 39.906875 58.93328125 39.078125 58.01953125 C9.77238043 31.57288372 -34.97913306 34.85159484 -61.6171875 63.3359375 Z " fill="#03579A" transform="translate(113.484375,9.29296875)"/>
<path d="M0 0 C0.33 0 0.66 0 1 0 C2.07000091 12.95041536 2.05184455 25.79644815 1.87890625 38.78125 C1.85454371 40.93314041 1.83070348 43.08503679 1.80735779 45.23693848 C1.74512603 50.84607857 1.67589359 56.45511023 1.60510254 62.06414795 C1.53386179 67.80964301 1.46938078 73.55521373 1.40429688 79.30078125 C1.27607212 90.53393735 1.14043659 101.76699039 1 113 C-2.99711679 109.00288321 -2.11878662 102.36726953 -2.14663696 96.97650146 C-2.14618378 96.09472229 -2.14573059 95.21294312 -2.14526367 94.30444336 C-2.14862228 93.35720901 -2.1519809 92.40997467 -2.15544128 91.43403625 C-2.16489987 88.3192919 -2.16689153 85.20460155 -2.16796875 82.08984375 C-2.17118379 79.91703774 -2.17454805 77.74423195 -2.17805481 75.57142639 C-2.18403255 71.02474465 -2.18589599 66.47808188 -2.18530273 61.93139648 C-2.18520094 56.10852859 -2.19887697 50.28578215 -2.21607494 44.46294308 C-2.22719512 39.97879986 -2.22922197 35.49468607 -2.22869301 31.01053047 C-2.22987218 28.86355735 -2.23429041 26.71658345 -2.24202538 24.56962395 C-2.25182978 21.56838322 -2.24894584 18.56740716 -2.24291992 15.56616211 C-2.24853943 14.6823587 -2.25415894 13.7985553 -2.25994873 12.88796997 C-2.23599602 8.18981755 -1.81148585 4.41848066 0 0 Z " fill="#0C5181" transform="translate(8,64)"/>
<path d="M0 0 C1.32 0 2.64 0 4 0 C4 0.66 4 1.32 4 2 C-9.52488161 10.42304017 -21.94780647 15.37769768 -38.0625 11.8125 C-43.55777507 10.33382314 -48.21805174 8.05513361 -53 5 C-51.15234375 4.41796875 -51.15234375 4.41796875 -49 4 C-46.5625 5.3125 -46.5625 5.3125 -44 7 C-36.36870375 10.52213673 -26.0432219 11.68107397 -18 9 C-16.906875 8.896875 -15.81375 8.79375 -14.6875 8.6875 C-10.55842112 7.91767173 -8.4112662 6.37305475 -5 4 C-2.125 3.25 -2.125 3.25 0 3 C0 2.01 0 1.02 0 0 Z " fill="#104B77" transform="translate(132,152)"/>
<path d="M0 0 C1.98 0.33 3.96 0.66 6 1 C6.495 3.475 6.495 3.475 7 6 C6.34 6 5.68 6 5 6 C4.79246094 6.69867188 4.58492187 7.39734375 4.37109375 8.1171875 C2.57440016 11.89485094 0.06250323 14.26411702 -2.9375 17.125 C-3.47568359 17.64964844 -4.01386719 18.17429688 -4.56835938 18.71484375 C-6.04029613 20.14866624 -7.51984366 21.57466427 -9 23 C-9.86818359 23.92425781 -9.86818359 23.92425781 -10.75390625 24.8671875 C-12 26 -12 26 -14 26 C-14 26.66 -14 27.32 -14 28 C-15.60032137 28.84069415 -17.20541171 29.67231505 -18.8125 30.5 C-19.70582031 30.9640625 -20.59914062 31.428125 -21.51953125 31.90625 C-24 33 -24 33 -27 33 C-27 33.66 -27 34.32 -27 35 C-28.98 35 -30.96 35 -33 35 C-30.41500252 33.27666834 -27.84671763 31.94584571 -25.0625 30.59033203 C-12.29035863 24.22679284 -2.44612254 15.23871778 5 3 C2.525 2.505 2.525 2.505 0 2 C0 1.34 0 0.68 0 0 Z " fill="#0D4F7C" transform="translate(161,152)"/>
<path d="M0 0 C0.66 0 1.32 0 2 0 C2 0.66 2 1.32 2 2 C2.99 2 3.98 2 5 2 C3.60210204 5.68536736 1.91983459 9.08885898 0.0625 12.5625 C-2.64155941 17.8524803 -4.15174924 22.87754194 -5.26171875 28.69921875 C-5.50535156 29.45847656 -5.74898437 30.21773437 -6 31 C-6.99 31.33 -7.98 31.66 -9 32 C-9.6875 30.4375 -9.6875 30.4375 -10 28 C-9.07989717 25.6340213 -8.07136051 23.30144109 -7 21 C-6.31163487 19.00736409 -5.63718601 17.00958663 -5 15 C-4.34 15 -3.68 15 -3 15 C-3.33 13.35 -3.66 11.7 -4 10 C-3.01 9.67 -2.02 9.34 -1 9 C-1 8.01 -1 7.02 -1 6 C-0.34 6 0.32 6 1 6 C0.67 4.02 0.34 2.04 0 0 Z " fill="#0B5185" transform="translate(42,77)"/>
<path d="M0 0 C2.79416553 1.51683272 4.96206929 2.96098556 7.1875 5.25 C14.14928219 12.05707592 22.12372177 16.21411136 31 20 C32.33869833 20.65582696 33.67414891 21.31857421 35 22 C27.68393327 21.65161587 23.18119279 19.79381049 17 16 C14.27256405 14.47448498 13.20306139 14 10 14 C10 12.68 10 11.36 10 10 C9.401875 9.87625 8.80375 9.7525 8.1875 9.625 C6 9 6 9 3 7 C3 5.68 3 4.36 3 3 C2.01 3 1.02 3 0 3 C0 2.01 0 1.02 0 0 Z " fill="#114E7C" transform="translate(51,166)"/>
<path d="M0 0 C1.98 0 3.96 0 6 0 C6.28875 0.639375 6.5775 1.27875 6.875 1.9375 C7.82823451 4.15206079 7.82823451 4.15206079 10 5 C10 5.66 10 6.32 10 7 C10.99 7 11.98 7 13 7 C13 7.66 13 8.32 13 9 C13.99 9 14.98 9 16 9 C16 9.66 16 10.32 16 11 C17.32 11 18.64 11 20 11 C20.33 11.99 20.66 12.98 21 14 C18.69 13.34 16.38 12.68 14 12 C14 11.34 14 10.68 14 10 C13.29875 9.731875 12.5975 9.46375 11.875 9.1875 C8.8350176 7.9318551 5.9272226 6.49764877 3 5 C2.71125 5.61875 2.4225 6.2375 2.125 6.875 C1 9 1 9 -1 11 C-0.73958333 9.01432292 -0.47916667 7.02864583 -0.21875 5.04296875 C0.053233 2.84528294 0.053233 2.84528294 0 0 Z " fill="#0A4E84" transform="translate(140,138)"/>
<path d="M0 0 C0.66 0 1.32 0 2 0 C2 0.99 2 1.98 2 3 C1.46890625 3.23074219 0.9378125 3.46148438 0.390625 3.69921875 C-3.23503565 5.37310953 -5.60573526 6.50137106 -8.125 9.6875 C-10 12 -10 12 -13 12.6875 C-13.99 12.790625 -14.98 12.89375 -16 13 C-16.70125 13.37125 -17.4025 13.7425 -18.125 14.125 C-20.50734567 15.23676131 -21.54279543 14.72390674 -24 14 C-23.30849854 13.61142822 -22.61699707 13.22285645 -21.90454102 12.82250977 C-18.78956569 11.07087689 -15.67601708 9.31672349 -12.5625 7.5625 C-11.47388672 6.95083984 -10.38527344 6.33917969 -9.26367188 5.70898438 C-8.22919922 5.12568359 -7.19472656 4.54238281 -6.12890625 3.94140625 C-5.17056885 3.40201416 -4.21223145 2.86262207 -3.22485352 2.30688477 C-1.10085689 1.18471061 -1.10085689 1.18471061 0 0 Z " fill="#114D80" transform="translate(72,24)"/>
<path d="M0 0 C1.87020084 3.74040167 2.24808916 4.85541693 2.22705078 8.76855469 C2.22689972 9.70922791 2.22674866 10.64990112 2.22659302 11.61907959 C2.21627045 12.62650208 2.20594788 13.63392456 2.1953125 14.671875 C2.1924826 15.70942932 2.18965271 16.74698364 2.18673706 17.815979 C2.17554865 21.12743701 2.15044627 24.43862384 2.125 27.75 C2.11496848 29.99608984 2.10584293 32.24218393 2.09765625 34.48828125 C2.0756137 39.99227991 2.04214932 45.49612058 2 51 C1.01 51 0.02 51 -1 51 C-0.67 34.17 -0.34 17.34 0 0 Z " fill="#15517B" transform="translate(202,108)"/>
<path d="M0 0 C1.485 0.99 1.485 0.99 3 2 C3.32470703 3.93603516 3.32470703 3.93603516 3.2578125 6.2890625 C3.24363281 7.14886719 3.22945312 8.00867188 3.21484375 8.89453125 C3.18519531 9.79558594 3.15554687 10.69664063 3.125 11.625 C2.96879665 17.88232254 3.06098974 23.80253226 4 30 C3.34 30 2.68 30 2 30 C-0.00060017 23.38384194 -0.24246007 17.38496734 -0.125 10.5 C-0.11597656 9.48679687 -0.10695312 8.47359375 -0.09765625 7.4296875 C-0.07429007 4.95287199 -0.04153168 2.47656621 0 0 Z " fill="#0E4B7D" transform="translate(33,110)"/>
<path d="M0 0 C7.25249169 0.36877076 7.25249169 0.36877076 10.8125 3.375 C11.534375 4.24125 12.25625 5.1075 13 6 C13.8353125 6.7734375 13.8353125 6.7734375 14.6875 7.5625 C16 9 16 9 17 11.125 C17.91202978 13.3530435 17.91202978 13.3530435 21 14 C21 14.66 21 15.32 21 16 C21.66 16 22.32 16 23 16 C22.67 16.99 22.34 17.98 22 19 C20.99403703 18.0479279 19.99538437 17.08812654 19 16.125 C18.443125 15.59132813 17.88625 15.05765625 17.3125 14.5078125 C16 13 16 13 16 11 C15.44570312 10.7421875 14.89140625 10.484375 14.3203125 10.21875 C11.6788894 8.83133585 9.3138496 7.21811494 6.875 5.5 C6.00617188 4.8915625 5.13734375 4.283125 4.2421875 3.65625 C2 2 2 2 0 0 Z " fill="#0C4F7F" transform="translate(138,57)"/>
<path d="M0 0 C-3.27989887 1.85729213 -6.37759418 2.58268269 -10.0625 3.3125 C-15.74405398 4.55654229 -20.65598989 6.43101109 -25.85546875 9.01171875 C-28 10 -28 10 -30 10 C-29.02042874 7.4826072 -28.37750401 6.230112 -26.0390625 4.8046875 C-17.53416348 1.52933804 -9.13100119 -0.16208878 0 0 Z " fill="#104774" transform="translate(98,49)"/>
<path d="M0 0 C5.1147871 1.25773453 8.95332659 2.94197039 13.4375 5.8125 C13.99590576 6.16634766 14.55431152 6.52019531 15.12963867 6.88476562 C16.7570749 7.91692446 18.37866553 8.95828264 20 10 C21.60272851 11.00230335 23.20661977 12.00275409 24.8125 13 C25.864375 13.66 26.91625 14.32 28 15 C25 16 25 16 22.375 15.1875 C20 14 20 14 19 12 C17.19421746 11.10853773 15.35494543 10.2840491 13.5 9.5 C8.11111111 7.22222222 8.11111111 7.22222222 7 5 C4.69034152 3.94647157 2.3570226 2.94280904 0 2 C0 1.34 0 0.68 0 0 Z " fill="#104B78" transform="translate(115,12)"/>
<path d="M0 0 C0.33 0 0.66 0 1 0 C1 7.59 1 15.18 1 23 C0.01 23 -0.98 23 -2 23 C-2.98669757 19.02353462 -3.0065948 15.57679322 -2.6875 11.5 C-2.60886719 10.3965625 -2.53023437 9.293125 -2.44921875 8.15625 C-2.0189099 5.13286261 -1.26416455 2.76568245 0 0 Z " fill="#114F80" transform="translate(203,79)"/>
<path d="M0 0 C3.9644789 0.61355031 6.5524654 2.59856266 9.75 4.9375 C10.73484375 5.64777344 11.7196875 6.35804687 12.734375 7.08984375 C13.48203125 7.72019531 14.2296875 8.35054687 15 9 C15 9.66 15 10.32 15 11 C15.66 11 16.32 11 17 11 C17.99 12.98 18.98 14.96 20 17 C19.01 17 18.02 17 17 17 C16.896875 16.360625 16.79375 15.72125 16.6875 15.0625 C16.460625 14.381875 16.23375 13.70125 16 13 C15.01 12.67 14.02 12.34 13 12 C12.401875 11.175 11.80375 10.35 11.1875 9.5 C8.52405783 6.45606609 6.94721131 6.26912804 3 6 C3 5.34 3 4.68 3 4 C2.34 4 1.68 4 1 4 C0.67 2.68 0.34 1.36 0 0 Z " fill="#0D507F" transform="translate(123,79)"/>
<path d="M0 0 C4.4129792 1.1032448 7.42188925 2.25678176 11 5 C13.64934822 5.71433121 13.64934822 5.71433121 16 6 C16 6.66 16 7.32 16 8 C16.66 8 17.32 8 18 8 C18 8.66 18 9.32 18 10 C19.98 10.66 21.96 11.32 24 12 C24 12.66 24 13.32 24 14 C15.49870224 10.76797509 7.57351213 6.00137593 0 1 C0 0.67 0 0.34 0 0 Z " fill="#1D4F7E" transform="translate(76,217)"/>
<path d="M0 0 C1.36682561 2.73365122 0.84683011 4.10666379 0 7 C-0.97753644 8.02196992 -1.9805881 9.01979625 -3 10 C-5.65368562 14.52687547 -6.6431048 18.72072621 -7.1875 23.875 C-7.26935547 24.56335938 -7.35121094 25.25171875 -7.43554688 25.9609375 C-7.63370738 27.63947357 -7.81827787 29.31960481 -8 31 C-8.33 31 -8.66 31 -9 31 C-9.40867721 19.92030662 -7.54904256 8.68139895 0 0 Z " fill="#134F7B" transform="translate(69,93)"/>
<path d="M0 0 C5.17935061 1.46828943 9.34373412 3.81491263 13.875 6.625 C14.90753906 7.25535156 14.90753906 7.25535156 15.9609375 7.8984375 C17.64391658 8.92692472 19.32242532 9.962721 21 11 C17.25 12.125 17.25 12.125 15 11 C15 10.34 15 9.68 15 9 C14.28457031 8.89558594 13.56914062 8.79117188 12.83203125 8.68359375 C9.68836323 7.92477733 7.44784227 6.73506294 4.6875 5.0625 C3.80449219 4.53785156 2.92148438 4.01320313 2.01171875 3.47265625 C1.34785156 2.98667969 0.68398437 2.50070313 0 2 C0 1.34 0 0.68 0 0 Z " fill="#134E7F" transform="translate(171,44)"/>
<path d="M0 0 C0.66 0 1.32 0 2 0 C2 0.66 2 1.32 2 2 C2.99 2 3.98 2 5 2 C5 3.32 5 4.64 5 6 C5.66 6 6.32 6 7 6 C7 7.32 7 8.64 7 10 C1.25 13 1.25 13 -1 13 C-1 13.66 -1 14.32 -1 15 C-2.98 15.33 -4.96 15.66 -7 16 C1.44827586 9 1.44827586 9 5 9 C3.35 6.03 1.7 3.06 0 0 Z " fill="#0E4F7E" transform="translate(161,76)"/>
<path d="M0 0 C0.515625 0.268125 1.03125 0.53625 1.5625 0.8125 C4.66401415 2.32349407 7.82262806 3.65572726 11 5 C11 5.66 11 6.32 11 7 C11.5775 7.103125 12.155 7.20625 12.75 7.3125 C15.32049158 8.09792798 16.93657284 9.30504197 19 11 C18.67 11.66 18.34 12.32 18 13 C15.17898172 11.41047413 12.36986212 9.80100389 9.5625 8.1875 C8.76005859 7.73568359 7.95761719 7.28386719 7.13085938 6.81835938 C6.36708984 6.37685547 5.60332031 5.93535156 4.81640625 5.48046875 C4.10943604 5.07723389 3.40246582 4.67399902 2.67407227 4.25854492 C1 3 1 3 0 0 Z " fill="#0D517C" transform="translate(9,177)"/>
<path d="M0 0 C3.92983894 3.36843337 6.03193901 7.96608285 7 13 C7.66 13 8.32 13 9 13 C10.04644066 14.63790712 11.0398183 16.31008021 12 18 C12.98244845 19.34631825 13.97676564 20.68441297 15 22 C7.41453779 18.83939075 3.10985485 10.21486325 0 3 C0 2.01 0 1.02 0 0 Z " fill="#144C79" transform="translate(62,132)"/>
<path d="M0 0 C0.99 0 1.98 0 3 0 C1.53634916 3.79404463 -0.29870647 5.06135529 -3.8125 7 C-7.47921865 9.09071946 -10.79769005 11.22466471 -14 14 C-12.57369692 10.66950878 -10.84985604 8.68261063 -8.125 6.3125 C-7.44695312 5.71050781 -6.76890625 5.10851562 -6.0703125 4.48828125 C-3.98934166 2.99233806 -2.50369174 2.4210244 0 2 C0 1.34 0 0.68 0 0 Z " fill="#13517E" transform="translate(84,79)"/>
<path d="M0 0 C-4.66359134 3.4976935 -9.45383146 7.03652884 -15 9 C-15.66 8.67 -16.32 8.34 -17 8 C-15.25 6 -15.25 6 -13 4 C-11.68 4 -10.36 4 -9 4 C-9 3.01 -9 2.02 -9 1 C-3.375 -1.125 -3.375 -1.125 0 0 Z " fill="#13537F" transform="translate(132,219)"/>
<path d="M0 0 C1.50390625 1.16796875 1.50390625 1.16796875 3 3 C3.43552302 8.04414837 2.85007645 13.31787999 0.0625 17.625 C-2 20 -2 20 -4 21 C-3 19 -2 17 -1 15 C-0.76827173 12.45384991 -0.58105471 9.92603775 -0.4375 7.375 C-0.39431641 6.66859375 -0.35113281 5.9621875 -0.30664062 5.234375 C-0.20055249 3.48981463 -0.09977111 1.74493303 0 0 Z " fill="#0D4E7D" transform="translate(201,160)"/>
<path d="M0 0 C0.66 0.33 1.32 0.66 2 1 C0.90241493 1.84198307 -0.20335317 2.67330671 -1.3125 3.5 C-1.92738281 3.9640625 -2.54226562 4.428125 -3.17578125 4.90625 C-5 6 -5 6 -8 6 C-8.33 6.99 -8.66 7.98 -9 9 C-11.06640625 9.94921875 -11.06640625 9.94921875 -13.5625 10.6875 C-14.80193359 11.06455078 -14.80193359 11.06455078 -16.06640625 11.44921875 C-16.70449219 11.63097656 -17.34257812 11.81273437 -18 12 C-16.625 10.5 -16.625 10.5 -15 9 C-14.34 9 -13.68 9 -13 9 C-13 8.34 -13 7.68 -13 7 C-12.14535156 6.57847656 -11.29070313 6.15695313 -10.41015625 5.72265625 C-9.30542969 5.17480469 -8.20070313 4.62695312 -7.0625 4.0625 C-5.96035156 3.51722656 -4.85820313 2.97195312 -3.72265625 2.41015625 C-1.15205586 1.25295022 -1.15205586 1.25295022 0 0 Z " fill="#134E7E" transform="translate(41,42)"/>
<path d="M0 0 C-0.33 0.99 -0.66 1.98 -1 3 C-2.32 3 -3.64 3 -5 3 C-5 3.66 -5 4.32 -5 5 C-8.36683915 7.43160605 -9.73350364 8 -14 8 C-14 8.66 -14 9.32 -14 10 C-15.32 9.67 -16.64 9.34 -18 9 C-15.56721456 7.49185257 -13.12933973 5.99335653 -10.6875 4.5 C-9.99720703 4.07074219 -9.30691406 3.64148438 -8.59570312 3.19921875 C-7.92861328 2.79316406 -7.26152344 2.38710938 -6.57421875 1.96875 C-5.96151123 1.59169922 -5.34880371 1.21464844 -4.7175293 0.82617188 C-3 0 -3 0 0 0 Z " fill="#144F7D" transform="translate(92,14)"/>
<path d="M0 0 C6.82540648 3.70522066 10.33808468 7.85485889 13 15 C12.01 14.67 11.02 14.34 10 14 C10 12.68 10 11.36 10 10 C9.401875 9.87625 8.80375 9.7525 8.1875 9.625 C6 9 6 9 3 7 C3 5.68 3 4.36 3 3 C2.01 3 1.02 3 0 3 C0 2.01 0 1.02 0 0 Z " fill="#0C5289" transform="translate(51,166)"/>
<path d="M0 0 C2.44375992 2.28964893 4.31540229 4.72652191 6.1875 7.5 C6.71730469 8.2734375 7.24710938 9.046875 7.79296875 9.84375 C9 12 9 12 9 15 C5.22954114 13.24045253 3.48613099 12.23758622 1.93359375 8.28515625 C1.20070099 5.534153 0.5490076 2.79319655 0 0 Z " fill="#0D5080" transform="translate(41,151)"/>
<path d="M0 0 C0.99 0.33 1.98 0.66 3 1 C2.01 2.485 2.01 2.485 1 4 C-0.98985949 4.38932033 -2.99199544 4.71887936 -5 5 C-5.70125 5.37125 -6.4025 5.7425 -7.125 6.125 C-9.48394488 7.22584094 -10.60004452 6.85712696 -13 6 C-9.13711279 3.42474186 -5.4662275 2.20244587 -1 1 C-0.67 0.67 -0.34 0.34 0 0 Z " fill="#0E5389" transform="translate(61,32)"/>
<path d="M0 0 C-3.79817765 3.22269618 -7.57391854 5.74520378 -12 8 C-12.66 7.67 -13.32 7.34 -14 7 C-9.82547171 2.51624739 -6.36062509 -0.54519644 0 0 Z " fill="#14507F" transform="translate(160,202)"/>
<path d="M0 0 C0.33 0.66 0.66 1.32 1 2 C-0.423125 2.6496875 -0.423125 2.6496875 -1.875 3.3125 C-5.20041937 4.79302201 -5.20041937 4.79302201 -7 8 C-9.625 9.1875 -9.625 9.1875 -12 10 C-11.1875 8.0625 -11.1875 8.0625 -10 6 C-9.01 5.67 -8.02 5.34 -7 5 C-7 4.34 -7 3.68 -7 3 C-4.69 2.01 -2.38 1.02 0 0 Z " fill="#12527C" transform="translate(21,54)"/>
<path d="M0 0 C1.65 0 3.3 0 5 0 C3.68 1.65 2.36 3.3 1 5 C0.46375 4.814375 -0.0725 4.62875 -0.625 4.4375 C-3.61990614 3.88580676 -6.03745829 4.39402556 -9 5 C-7.875 3.5 -7.875 3.5 -6 2 C-2.8125 1.8125 -2.8125 1.8125 0 2 C0 1.34 0 0.68 0 0 Z " fill="#08528E" transform="translate(101,9)"/>
<path d="M0 0 C2.24366996 1.12183498 4.07335866 2.39446555 6 4 C6 4.66 6 5.32 6 6 C6.99 6 7.98 6 9 6 C9 6.66 9 7.32 9 8 C4.69235185 6.43358249 0.93828536 4.31663844 -3 2 C-2.01 1.34 -1.02 0.68 0 0 Z " fill="#104E81" transform="translate(67,209)"/>
<path d="M0 0 C0.66 0.66 1.32 1.32 2 2 C-0.97 4.97 -3.94 7.94 -7 11 C-7.33 10.34 -7.66 9.68 -8 9 C-6.71937515 7.2925002 -5.38232443 5.62626404 -4 4 C-3.34 4 -2.68 4 -2 4 C-1.34 2.68 -0.68 1.36 0 0 Z " fill="#134C7A" transform="translate(58,64)"/>
<path d="M0 0 C2.475 0.495 2.475 0.495 5 1 C5.103125 1.639375 5.20625 2.27875 5.3125 2.9375 C5.539375 3.618125 5.76625 4.29875 6 5 C6.99 5.33 7.98 5.66 9 6 C9 6.66 9 7.32 9 8 C9.66 8 10.32 8 11 8 C10.67 8.99 10.34 9.98 10 11 C8.99403703 10.0479279 7.99538437 9.08812654 7 8.125 C6.443125 7.59132813 5.88625 7.05765625 5.3125 6.5078125 C4 5 4 5 4 3 C2.68 2.34 1.36 1.68 0 1 C0 0.67 0 0.34 0 0 Z " fill="#0C456D" transform="translate(150,65)"/>
<path d="M0 0 C-0.99 0.33 -1.98 0.66 -3 1 C-3.6496875 1.7115625 -3.6496875 1.7115625 -4.3125 2.4375 C-6.61015902 4.56496206 -9.02750796 5.14128008 -12 6 C-10.9200311 2.86809018 -9.99049526 1.99400788 -7.125 0.1875 C-4.02316031 -0.99119908 -2.9798555 -1.26070809 0 0 Z " fill="#0B5186" transform="translate(80,53)"/>
<path d="M0 0 C0.99 0 1.98 0 3 0 C3 0.66 3 1.32 3 2 C3.66 2 4.32 2 5 2 C5 2.66 5 3.32 5 4 C6.98 4.66 8.96 5.32 11 6 C11 6.66 11 7.32 11 8 C7.40924853 6.66629231 4.15378602 5.19012918 1 3 C0.67 2.01 0.34 1.02 0 0 Z " fill="#124D79" transform="translate(89,223)"/>
<path d="M0 0 C4.44380808 1.13273539 8.26436721 2.28317615 12 5 C12 5.66 12 6.32 12 7 C7.39104317 5.68315519 3.85859765 3.84801255 0 1 C0 0.67 0 0.34 0 0 Z " fill="#164D77" transform="translate(52,203)"/>
<path d="M0 0 C0.99 0.33 1.98 0.66 3 1 C3 2.65 3 4.3 3 6 C-2.75 4.375 -2.75 4.375 -5 1 C-3.68 1.33 -2.36 1.66 -1 2 C-0.67 1.34 -0.34 0.68 0 0 Z " fill="#0F5289" transform="translate(45,195)"/>
<path d="M0 0 C1.98 0 3.96 0 6 0 C3.54908957 2.68433048 1.71758616 3.91789741 -2.04296875 4.09765625 C-2.75066406 4.08605469 -3.45835938 4.07445312 -4.1875 4.0625 C-6.0746875 4.0315625 -6.0746875 4.0315625 -8 4 C-8 3.67 -8 3.34 -8 3 C-5.69 3 -3.38 3 -1 3 C-0.67 2.01 -0.34 1.02 0 0 Z " fill="#135181" transform="translate(109,228)"/>
<path d="M0 0 C0.66 0.33 1.32 0.66 2 1 C0.90716423 2.03295436 -0.19970579 3.05107835 -1.3125 4.0625 C-1.92738281 4.63097656 -2.54226562 5.19945313 -3.17578125 5.78515625 C-3.77777344 6.18605469 -4.37976563 6.58695312 -5 7 C-5.99 6.67 -6.98 6.34 -8 6 C-5.63404067 3.38499232 -3.13950774 1.61000397 0 0 Z " fill="#0E4F81" transform="translate(152,92)"/>
<path d="M0 0 C-2.31 1.65 -4.62 3.3 -7 5 C-7.33 3.68 -7.66 2.36 -8 1 C-2.25 -1.125 -2.25 -1.125 0 0 Z " fill="#0A4D81" transform="translate(68,60)"/>
<path d="M0 0 C2.97 1.65 5.94 3.3 9 5 C6.13822943 6.43088528 4.06624227 5.59991697 1 5 C0.67 3.35 0.34 1.7 0 0 Z " fill="#145281" transform="translate(162,38)"/>
<path d="M0 0 C1.32 0 2.64 0 4 0 C4 0.66 4 1.32 4 2 C1.69631264 3.06652192 -0.64018187 4.06421005 -3 5 C-3.66 4.67 -4.32 4.34 -5 4 C-3.35 3.67 -1.7 3.34 0 3 C0 2.01 0 1.02 0 0 Z " fill="#0C5483" transform="translate(132,152)"/>
<path d="M0 0 C0.66 0 1.32 0 2 0 C2 0.66 2 1.32 2 2 C2.99 2 3.98 2 5 2 C4.67 2.99 4.34 3.98 4 5 C2.68 4.67 1.36 4.34 0 4 C0 2.68 0 1.36 0 0 Z " fill="#09558A" transform="translate(42,77)"/>
</svg>
