<?xml version="1.0" encoding="UTF-8"?>
<svg version="1.1" xmlns="http://www.w3.org/2000/svg" width="450" height="450">
<path d="M0 0 C13.55501096 -0.06001883 27.1099992 -0.10764755 40.6651125 -0.13727474 C42.08992323 -0.14039322 43.51473396 -0.14351395 44.93954468 -0.14663696 C45.98957244 -0.14891697 45.98957244 -0.14891697 47.06081289 -0.15124303 C51.98658518 -0.16256239 56.9123033 -0.18082472 61.83804321 -0.20175171 C68.44066846 -0.22954535 75.04318682 -0.2412105 81.64587975 -0.24174309 C84.05948674 -0.24428997 86.4730945 -0.25194177 88.88666725 -0.26504707 C92.16419448 -0.28195868 95.44119774 -0.28037977 98.71875 -0.27392578 C99.67333005 -0.28314403 100.6279101 -0.29236227 101.61141682 -0.30185986 C102.92677559 -0.29350093 102.92677559 -0.29350093 104.26870728 -0.28497314 C105.02228327 -0.2864397 105.77585926 -0.28790627 106.55227089 -0.28941727 C109.56900924 0.21718667 111.38149427 1.17141031 113.76708984 3.08251953 C114.31222534 5.41086578 114.31222534 5.41086578 114.18066406 8.22180176 C114.13472107 9.29887894 114.08877808 10.37595612 114.04144287 11.485672 C113.52237859 18.29075482 112.88253921 25.06926112 112.14990234 31.85400391 C111.97515701 33.51563487 111.80096361 35.17732395 111.62727356 36.83906555 C111.15505984 41.34185126 110.67516455 45.84378851 110.19388962 50.34561348 C109.68191723 55.14753134 109.17719323 59.95021144 108.67163086 64.75280762 C107.7051391 73.92367767 106.73230874 83.0938637 105.75715542 92.26381636 C104.67996479 102.39584129 103.60933733 112.52855544 102.53954315 122.6613636 C101.17836648 135.55393042 99.8159955 148.4463674 98.44726562 161.33813477 C96.52071751 179.48655635 94.6001126 197.63549717 92.71161079 215.78792286 C92.43059609 218.48783373 92.14910344 221.18769429 91.86741638 223.8875351 C91.77656926 224.75830389 91.68572214 225.62907269 91.59212208 226.52622843 C91.41188454 228.25367519 91.231627 229.98111987 91.05134869 231.70856237 C90.53774145 236.63299923 90.02736278 241.55775666 89.51949978 246.48278904 C89.20856244 249.49079848 88.89458913 252.49848557 88.57981682 255.50609589 C88.37002703 257.51972843 88.16399979 259.53375189 87.95814514 261.54779053 C85.8037804 282.05002199 85.8037804 282.05002199 83.20703125 287.14111328 C79.65946655 289.96383036 76.06448085 290.95661136 71.72802734 292.14501953 C70.74740326 292.42829102 69.76677917 292.7115625 68.75643921 293.00341797 C65.79612264 293.85108148 62.83105718 294.67950299 59.86326599 295.50054932 C57.61036342 296.12603215 55.35953838 296.75861156 53.10900879 297.39257812 C43.11704195 300.20574915 33.1138321 302.97538174 23.09871292 305.70498657 C18.22922989 307.03217202 13.36174455 308.36580683 8.49853516 309.71582031 C3.72314684 311.04143483 -1.0563108 312.35124245 -5.8391304 313.64978027 C-7.6418231 314.14193285 -9.44305478 314.6394724 -11.24268723 315.1427002 C-13.74907238 315.84226902 -16.26021058 316.52129086 -18.7734375 317.19580078 C-19.49975876 317.40346573 -20.22608002 317.61113068 -20.97441101 317.8250885 C-29.5598984 320.07595298 -37.26373686 318.02185552 -45.6171875 315.64575195 C-46.50791458 315.39843826 -47.39864166 315.15112457 -48.31636047 314.89631653 C-51.23582757 314.08375413 -54.15234835 313.26113347 -57.06884766 312.43798828 C-59.11457819 311.86558237 -61.16044853 311.29367593 -63.20645142 310.72224426 C-67.48605042 309.52536479 -71.76427068 308.32371413 -76.04150391 307.1184082 C-81.49841172 305.5808949 -86.95804783 304.05335455 -92.41869164 302.52917004 C-96.64233321 301.3494157 -100.86474454 300.16530827 -105.08678055 298.97982216 C-107.09812268 298.41542083 -109.10977272 297.85211551 -111.12174606 297.28996849 C-140.26240126 289.13857034 -140.26240126 289.13857034 -143.23291016 284.08251953 C-144.00841126 281.04884212 -144.39060407 277.98408682 -144.77864075 274.88000488 C-144.90206685 273.95328932 -145.02549295 273.02657376 -145.15265924 272.07177591 C-146.59758772 260.85384311 -147.55314439 249.59130151 -148.5012207 238.32275391 C-148.70806242 235.91709202 -148.91541399 233.51147392 -149.12322998 231.105896 C-149.62273295 225.3075078 -150.1167373 219.50867166 -150.60791548 213.70957273 C-151.00755827 208.99270297 -151.4096308 204.27604589 -151.81336403 199.55952454 C-151.9001782 198.54531427 -151.9001782 198.54531427 -151.9887462 197.5106149 C-152.10639266 196.13633912 -152.22404508 194.76206384 -152.34170339 193.38778907 C-153.43900316 180.56794519 -154.52908889 167.74749603 -155.61656741 154.92681581 C-156.54740061 143.95480641 -157.48425976 132.9833252 -158.42553711 122.01220703 C-159.52307515 109.21973666 -160.61703076 96.42696841 -161.7052291 83.63369989 C-161.82145005 82.2674624 -161.93767486 80.90122524 -162.05390358 79.5349884 C-162.11106493 78.86304128 -162.16822628 78.19109415 -162.2271198 77.49878499 C-162.62791562 72.79013023 -163.03121185 68.08169357 -163.43549156 63.37333679 C-163.97979067 57.03048067 -164.51863551 50.68718373 -165.05335999 44.34351349 C-165.2497951 42.0234859 -165.44807941 39.70361398 -165.64840126 37.38391876 C-166.23183158 30.62015606 -166.77588357 23.85605929 -167.23291016 17.08251953 C-167.2851009 16.35102251 -167.33729165 15.61952549 -167.39106393 14.86586189 C-167.51223747 13.00805927 -167.58979043 11.14754484 -167.66291809 9.28723145 C-167.7039607 8.32955116 -167.7450033 7.37187088 -167.78728962 6.38516998 C-167.23291016 4.08251953 -167.23291016 4.08251953 -165.02908325 2.2821455 C-162.1165386 1.03259332 -160.21314666 0.70021639 -157.06413269 0.68379211 C-155.52687562 0.66498301 -155.52687562 0.66498301 -153.95856285 0.64579391 C-152.84019854 0.64723026 -151.72183422 0.64866661 -150.56958008 0.65014648 C-149.37718531 0.63996616 -148.18479053 0.62978584 -146.95626259 0.61929703 C-143.65542055 0.59419439 -140.35502453 0.58244438 -137.05412507 0.57645917 C-133.50539286 0.56685489 -129.95678256 0.54024591 -126.40812683 0.51585388 C-119.48625155 0.47110028 -112.56440099 0.44259064 -105.64242119 0.42007774 C-100.03438964 0.40158163 -94.42641073 0.37731703 -88.81842041 0.34899902 C-87.62380515 0.34298622 -87.62380515 0.34298622 -86.40505624 0.33685195 C-84.78947129 0.32871292 -83.17388636 0.32057008 -81.55830145 0.31242347 C-65.76919099 0.23374314 -49.9800539 0.17784722 -34.1908226 0.13035393 C-22.79383497 0.09577651 -11.39692618 0.05076038 0 0 Z " fill="#4280DD" transform="translate(249.23291015625,69.91748046875)"/>
<path d="M0 0 C0.71915179 -0.00311998 1.43830359 -0.00623996 2.17924786 -0.00945449 C4.59524862 -0.01744831 7.0109992 -0.01110554 9.42700195 -0.00482178 C11.1565465 -0.00753103 12.8860899 -0.01109159 14.6156311 -0.01544189 C19.31801292 -0.02457602 24.02030719 -0.02101743 28.72269058 -0.01468372 C33.63804617 -0.00962903 38.55339413 -0.0143137 43.46875 -0.01745605 C51.72405344 -0.02109725 59.97932113 -0.01629258 68.23461914 -0.0067749 C77.78619725 0.00410994 87.33768998 0.00058447 96.88926601 -0.01042771 C105.08209433 -0.01949622 113.2748969 -0.020788 121.46772861 -0.01555037 C126.36443545 -0.01242827 131.26110212 -0.01202791 136.1578064 -0.01862335 C140.76080711 -0.02438984 145.36369748 -0.02041272 149.96668625 -0.00883484 C151.65861197 -0.00618452 153.35054695 -0.00695966 155.04246902 -0.01136017 C157.34696129 -0.01680244 159.65109703 -0.00999775 161.95556641 0 C163.24678909 0.00075405 164.53801178 0.0015081 165.86836243 0.002285 C168.9777832 0.25396729 168.9777832 0.25396729 171.9777832 2.25396729 C173.42519119 11.10051799 171.40568845 21.05251688 170.43991089 29.927845 C168.83436492 44.76016644 167.48060262 59.59992544 166.4152832 74.48052979 C166.35570183 75.31148792 166.29612045 76.14244606 166.23473358 76.99858475 C165.93255001 81.23185836 165.63487045 85.46543224 165.33996582 89.69921875 C164.72030355 98.58844983 164.07442546 107.47581239 163.4309082 116.36334229 C163.33677013 117.66622759 163.33677013 117.66622759 163.24073029 118.99543381 C162.22266843 133.07578858 161.16899813 147.15230516 159.97436523 161.21899414 C159.81161165 163.13968783 159.65172125 165.06062657 159.49487305 166.98181152 C159.28416878 169.54991327 159.06272698 172.11682194 158.8371582 174.68365479 C158.77904968 175.40869202 158.72094116 176.13372925 158.66107178 176.8807373 C158.33773225 180.38627761 157.99294908 183.31211607 155.9777832 186.25396729 C151.95647053 188.67832701 147.95024517 189.93659621 143.4152832 191.06646729 C142.08019979 191.40847317 140.7455897 191.75233038 139.41137695 192.09771729 C138.6970752 192.28205322 137.98277344 192.46638916 137.24682617 192.65631104 C133.14152225 193.7376306 129.05963961 194.9002226 124.9777832 196.06646729 C124.10702148 196.31525635 123.23625977 196.56404541 122.33911133 196.82037354 C114.34647126 199.120497 106.38977399 201.53582333 98.44067383 203.98175049 C97.52350586 204.26365234 96.60633789 204.5455542 95.66137695 204.83599854 C94.85240967 205.08583496 94.04344238 205.33567139 93.20996094 205.59307861 C77.19419947 210.33492115 61.94661936 203.67462374 46.80981445 198.50006104 C42.63832956 197.10956607 38.40904376 195.96310884 34.1652832 194.81646729 C27.75942733 193.06101974 21.37778952 191.24337367 15.0402832 189.25396729 C13.89499146 188.91667603 13.89499146 188.91667603 12.7265625 188.5725708 C9.59118596 187.56160669 7.39295494 186.77588356 5.31225586 184.16021729 C3.63724568 180.51233563 3.29513017 177.07789862 3.02856445 173.12896729 C2.96622116 172.34562012 2.90387787 171.56227295 2.83964539 170.75518799 C2.71026623 169.09818026 2.58709019 167.44067797 2.46972656 165.78277588 C2.29275826 163.28884706 2.09703413 160.79697922 1.89770508 158.30474854 C-0.0927759 132.68845749 -0.0927759 132.68845749 2.30712891 129.47271729 C7.41395293 125.74726565 14.71452001 127.0295111 20.76611328 127.01373291 C23.03560491 127.00398737 25.30420563 126.97293386 27.57348633 126.94146729 C29.01163199 126.93494077 30.44978412 126.92968892 31.88793945 126.92584229 C33.19899658 126.91649658 34.51005371 126.90715088 35.86083984 126.89752197 C37.40372681 127.0739624 37.40372681 127.0739624 38.9777832 127.25396729 C41.16943264 130.54144145 41.26457707 131.73891553 41.3918457 135.57818604 C41.43051758 136.60621338 41.46918945 137.63424072 41.5090332 138.69342041 C41.5399707 139.76527588 41.5709082 140.83713135 41.6027832 141.94146729 C41.66079102 143.56665283 41.66079102 143.56665283 41.7199707 145.22467041 C41.81428829 147.90093196 41.89988325 150.57718571 41.9777832 153.25396729 C47.95120222 155.30343595 53.94929217 157.15051029 60.0402832 158.81646729 C61.16660156 159.12874268 61.16660156 159.12874268 62.31567383 159.44732666 C63.81114208 159.85964677 65.30804712 160.26679385 66.80639648 160.66851807 C68.21982902 161.0496077 69.62996868 161.44320165 71.03588867 161.85113525 C71.6960498 162.03434326 72.35621094 162.21755127 73.03637695 162.40631104 C73.88993774 162.65175659 73.88993774 162.65175659 74.76074219 162.90216064 C81.02819908 163.89669928 86.51093918 163.12085603 92.6184082 161.57427979 C93.65260895 161.31504227 93.65260895 161.31504227 94.70770264 161.05056763 C96.15075317 160.68680827 97.59266951 160.31852141 99.03344727 159.94586182 C101.23361967 159.37745947 103.43723487 158.82440639 105.6418457 158.27349854 C113.55699618 156.44217088 113.55699618 156.44217088 120.9777832 153.25396729 C121.00283936 152.68476563 121.02789551 152.11556396 121.05371094 151.52911377 C121.17072214 148.91639415 121.292966 146.30394366 121.4152832 143.69146729 C121.45459961 142.79621338 121.49391602 141.90095947 121.53442383 140.97857666 C121.57631836 140.0987915 121.61821289 139.21900635 121.66137695 138.31256104 C121.71636353 137.11071167 121.71636353 137.11071167 121.77246094 135.88458252 C122.02420988 132.65914278 122.52024984 129.45670085 122.9777832 126.25396729 C122.9777832 121.30396729 122.9777832 116.35396729 122.9777832 111.25396729 C82.3877832 110.92396729 41.7977832 110.59396729 -0.0222168 110.25396729 C-2.14204921 106.01430246 -2.39907147 103.55696631 -2.6472168 98.87896729 C-2.68443848 98.18085938 -2.72166016 97.48275146 -2.76000977 96.76348877 C-3.09413154 89.94632681 -3.37081462 83.07213063 -3.0222168 76.25396729 C-0.98947841 74.2212289 3.22300916 75.01906569 6.0168457 74.97271729 C6.88920868 74.95467041 7.76157166 74.93662354 8.66036987 74.91802979 C11.64109797 74.85823028 14.62191137 74.80607471 17.6027832 74.75396729 C19.71802098 74.71312747 21.83325526 74.67210644 23.94848633 74.63092041 C37.65311332 74.37392616 51.35828132 74.1935121 65.0643425 74.03535461 C67.77586023 74.00404362 70.48737197 73.97224978 73.19888306 73.94036865 C81.34001106 73.84517574 89.48112624 73.75278926 97.62242317 73.673172 C101.04440896 73.63884924 104.46634435 73.60064894 107.88827896 73.56158447 C109.50346181 73.54408206 111.11866499 73.52836005 112.7338829 73.51446533 C114.95262715 73.49523414 117.17122667 73.4700497 119.38989258 73.44342041 C120.64330444 73.43089233 121.89671631 73.41836426 123.18811035 73.40545654 C125.88388821 73.57043712 125.88388821 73.57043712 126.9777832 72.25396729 C127.94683057 65.53840126 128.10158104 58.96723585 128.0402832 52.19146729 C128.03351563 50.74997314 128.03351563 50.74997314 128.02661133 49.27935791 C128.01496026 46.93749307 127.99860346 44.59576547 127.9777832 42.25396729 C127.31240697 42.25250072 126.64703074 42.25103416 125.96149158 42.24952316 C109.76990753 42.21246826 93.57856716 42.15347127 77.38715839 42.07006454 C69.55709299 42.03025847 61.72712832 41.99787401 53.89697266 41.98297119 C47.07203631 41.96996273 40.24732146 41.94301892 33.42250985 41.89935422 C29.80890899 41.87672095 26.19558149 41.8610577 22.58190346 41.86208344 C18.54728985 41.86296751 14.51348369 41.8327398 10.47900391 41.79986572 C9.28138428 41.80489609 8.08376465 41.80992645 6.84985352 41.81510925 C-1.24870504 41.71274498 -1.24870504 41.71274498 -5.24104309 39.34484863 C-11.8997511 31.5283351 -10.2201613 14.48467332 -10.38549805 4.58990479 C-10.26561523 3.81904541 -10.14573242 3.04818604 -10.0222168 2.25396729 C-6.30675666 -0.22300614 -4.43889777 0.00259224 0 0 Z " fill="#DDDDDE" transform="translate(138.022216796875,126.74603271484375)"/>
<path d="M0 0 C13.55501096 -0.06001883 27.1099992 -0.10764755 40.6651125 -0.13727474 C42.08992323 -0.14039322 43.51473396 -0.14351395 44.93954468 -0.14663696 C45.98957244 -0.14891697 45.98957244 -0.14891697 47.06081289 -0.15124303 C51.98658518 -0.16256239 56.9123033 -0.18082472 61.83804321 -0.20175171 C68.44066846 -0.22954535 75.04318682 -0.2412105 81.64587975 -0.24174309 C84.05948674 -0.24428997 86.4730945 -0.25194177 88.88666725 -0.26504707 C92.16419448 -0.28195868 95.44119774 -0.28037977 98.71875 -0.27392578 C99.67333005 -0.28314403 100.6279101 -0.29236227 101.61141682 -0.30185986 C102.92677559 -0.29350093 102.92677559 -0.29350093 104.26870728 -0.28497314 C105.02228327 -0.2864397 105.77585926 -0.28790627 106.55227089 -0.28941727 C109.56646228 0.21675896 111.38157519 1.17619157 113.76708984 3.08251953 C114.31613064 5.37404442 114.31613064 5.37404442 114.18760681 8.15634155 C114.11864606 9.77239351 114.11864606 9.77239351 114.04829216 11.42109299 C113.49715558 18.59722907 112.81057664 25.74628257 112.03881836 32.90136719 C111.85271437 34.67008419 111.66716265 36.43885937 111.4821167 38.20768738 C110.98143431 42.97875818 110.47311161 47.74898675 109.96336865 52.51909685 C109.42945797 57.52807165 108.90273157 62.53780189 108.37522888 67.54745483 C107.37558854 77.03069471 106.36964603 86.51325476 105.3613624 95.99557912 C104.21749909 106.75564514 103.08035207 117.5164174 101.94392121 128.27727056 C100.5574807 141.40545459 99.17028381 154.53355639 97.77723694 167.66104126 C97.67873093 168.58956964 97.58022493 169.51809803 97.4787339 170.47476363 C97.018629 174.81159063 96.55823856 179.14838689 96.09727478 183.48512268 C95.29768256 191.01539187 94.50844741 198.54624373 93.76708984 206.08251953 C93.43708984 206.08251953 93.10708984 206.08251953 92.76708984 206.08251953 C92.10708984 202.12251953 91.44708984 198.16251953 90.76708984 194.08251953 C91.42708984 194.08251953 92.08708984 194.08251953 92.76708984 194.08251953 C93.09708984 185.17251953 93.42708984 176.26251953 93.76708984 167.08251953 C94.42708984 167.08251953 95.08708984 167.08251953 95.76708984 167.08251953 C95.43708984 163.12251953 95.10708984 159.16251953 94.76708984 155.08251953 C95.09708984 155.08251953 95.42708984 155.08251953 95.76708984 155.08251953 C96.10681785 152.27066359 96.43899196 149.45823717 96.76708984 146.64501953 C96.86248047 145.86191406 96.95787109 145.07880859 97.05615234 144.27197266 C97.52866379 140.17124831 97.81291861 136.17768051 97.76708984 132.04736328 C97.76708984 128.08251953 97.76708984 128.08251953 98.76708984 127.08251953 C98.81322186 125.58322909 98.80505236 124.08203907 98.76708984 122.58251953 C98.72912732 121.08299999 98.72095783 119.58180998 98.76708984 118.08251953 C99.09708984 117.75251953 99.42708984 117.42251953 99.76708984 117.08251953 C99.83888948 115.56323915 99.85100992 114.04084471 99.82958984 112.52001953 C99.81605469 111.28058594 99.81605469 111.28058594 99.80224609 110.01611328 C99.79064453 109.37802734 99.77904297 108.73994141 99.76708984 108.08251953 C100.42708984 108.08251953 101.08708984 108.08251953 101.76708984 108.08251953 C101.43708984 105.11251953 101.10708984 102.14251953 100.76708984 99.08251953 C101.42708984 99.08251953 102.08708984 99.08251953 102.76708984 99.08251953 C102.43708984 95.45251953 102.10708984 91.82251953 101.76708984 88.08251953 C102.09708984 88.08251953 102.42708984 88.08251953 102.76708984 88.08251953 C102.76708984 85.11251953 102.76708984 82.14251953 102.76708984 79.08251953 C103.42708984 79.08251953 104.08708984 79.08251953 104.76708984 79.08251953 C104.43708984 75.78251953 104.10708984 72.48251953 103.76708984 69.08251953 C104.09708984 69.08251953 104.42708984 69.08251953 104.76708984 69.08251953 C104.76708984 66.11251953 104.76708984 63.14251953 104.76708984 60.08251953 C105.42708984 60.08251953 106.08708984 60.08251953 106.76708984 60.08251953 C106.43708984 56.78251953 106.10708984 53.48251953 105.76708984 50.08251953 C106.09708984 50.08251953 106.42708984 50.08251953 106.76708984 50.08251953 C106.73615234 48.13345703 106.73615234 48.13345703 106.70458984 46.14501953 C106.6830953 44.7908632 106.69560786 43.4349587 106.76708984 42.08251953 C107.09708984 41.75251953 107.42708984 41.42251953 107.76708984 41.08251953 C107.83888948 39.56323915 107.85100992 38.04084471 107.82958984 36.52001953 C107.81605469 35.28058594 107.81605469 35.28058594 107.80224609 34.01611328 C107.79064453 33.37802734 107.77904297 32.73994141 107.76708984 32.08251953 C108.42708984 32.08251953 109.08708984 32.08251953 109.76708984 32.08251953 C109.75548828 30.89013672 109.74388672 29.69775391 109.73193359 28.46923828 C109.72255392 26.9028336 109.71345391 25.33642722 109.70458984 23.77001953 C109.69621094 22.98433594 109.68783203 22.19865234 109.67919922 21.38916016 C109.67436523 20.25317383 109.67436523 20.25317383 109.66943359 19.09423828 C109.66157837 18.04949341 109.66157837 18.04949341 109.65356445 16.98364258 C109.76708984 15.08251953 109.76708984 15.08251953 110.76708984 12.08251953 C110.76708984 9.44251953 110.76708984 6.80251953 110.76708984 4.08251953 C20.01708984 4.08251953 -70.73291016 4.08251953 -164.23291016 4.08251953 C-163.24291016 12.99251953 -162.25291016 21.90251953 -161.23291016 31.08251953 C-160.67193459 37.29064917 -160.13134168 43.49234338 -159.67041016 49.70751953 C-159.61296253 50.46666153 -159.55551491 51.22580353 -159.49632645 52.00794983 C-158.6296745 63.53176393 -157.97645208 75.0476724 -157.49193192 86.59321594 C-156.54190253 108.69232966 -154.67661475 130.67376589 -152.62569809 152.69387054 C-152.167354 157.63806345 -151.71936776 162.58319258 -151.27124023 167.52832031 C-151.18192891 168.51365564 -151.09261759 169.49899097 -151.00059986 170.51418495 C-150.82159896 172.48928993 -150.64263635 174.46439837 -150.46371269 176.43951035 C-150.20022332 179.34435785 -149.93569205 182.24910884 -149.6709137 185.15383911 C-148.34216348 199.74891706 -147.0885104 214.34860784 -145.92041016 228.95751953 C-145.84489929 229.89941132 -145.76938843 230.8413031 -145.69158936 231.81173706 C-145.40623991 235.37446284 -145.12156075 238.93723998 -144.83874512 242.50016785 C-144.0800066 252.05065582 -143.28207887 261.59784386 -142.48291016 271.14501953 C-142.35358156 272.69238152 -142.22426773 274.23974475 -142.0949707 275.78710938 C-141.80808655 279.21895215 -141.52068667 282.65075145 -141.23291016 286.08251953 C-144.30158112 283.01384857 -144.16848808 279.15168155 -144.71614075 275.00500488 C-144.84407857 274.06926589 -144.97201639 273.13352689 -145.10383111 272.16943216 C-146.5913876 260.92032812 -147.55011395 249.62732037 -148.5012207 238.32275391 C-148.70806242 235.91709202 -148.91541399 233.51147392 -149.12322998 231.105896 C-149.62273295 225.3075078 -150.1167373 219.50867166 -150.60791548 213.70957273 C-151.00755827 208.99270297 -151.4096308 204.27604589 -151.81336403 199.55952454 C-151.9001782 198.54531427 -151.9001782 198.54531427 -151.9887462 197.5106149 C-152.10639266 196.13633912 -152.22404508 194.76206384 -152.34170339 193.38778907 C-153.43900316 180.56794519 -154.52908889 167.74749603 -155.61656741 154.92681581 C-156.54740061 143.95480641 -157.48425976 132.9833252 -158.42553711 122.01220703 C-159.52307515 109.21973666 -160.61703076 96.42696841 -161.7052291 83.63369989 C-161.82145005 82.2674624 -161.93767486 80.90122524 -162.05390358 79.5349884 C-162.11106493 78.86304128 -162.16822628 78.19109415 -162.2271198 77.49878499 C-162.62791562 72.79013023 -163.03121185 68.08169357 -163.43549156 63.37333679 C-163.97979067 57.03048067 -164.51863551 50.68718373 -165.05335999 44.34351349 C-165.2497951 42.0234859 -165.44807941 39.70361398 -165.64840126 37.38391876 C-166.23183158 30.62015606 -166.77588357 23.85605929 -167.23291016 17.08251953 C-167.2851009 16.35102251 -167.33729165 15.61952549 -167.39106393 14.86586189 C-167.51223747 13.00805927 -167.58979043 11.14754484 -167.66291809 9.28723145 C-167.7039607 8.32955116 -167.7450033 7.37187088 -167.78728962 6.38516998 C-167.23291016 4.08251953 -167.23291016 4.08251953 -165.02908325 2.2821455 C-162.1165386 1.03259332 -160.21314666 0.70021639 -157.06413269 0.68379211 C-155.52687562 0.66498301 -155.52687562 0.66498301 -153.95856285 0.64579391 C-152.84019854 0.64723026 -151.72183422 0.64866661 -150.56958008 0.65014648 C-149.37718531 0.63996616 -148.18479053 0.62978584 -146.95626259 0.61929703 C-143.65542055 0.59419439 -140.35502453 0.58244438 -137.05412507 0.57645917 C-133.50539286 0.56685489 -129.95678256 0.54024591 -126.40812683 0.51585388 C-119.48625155 0.47110028 -112.56440099 0.44259064 -105.64242119 0.42007774 C-100.03438964 0.40158163 -94.42641073 0.37731703 -88.81842041 0.34899902 C-87.62380515 0.34298622 -87.62380515 0.34298622 -86.40505624 0.33685195 C-84.78947129 0.32871292 -83.17388636 0.32057008 -81.55830145 0.31242347 C-65.76919099 0.23374314 -49.9800539 0.17784722 -34.1908226 0.13035393 C-22.79383497 0.09577651 -11.39692618 0.05076038 0 0 Z " fill="#7BAFEE" transform="translate(249.23291015625,69.91748046875)"/>
<path d="M0 0 C17.41959673 -0.07003395 34.83914963 -0.12296057 52.25885487 -0.15543652 C60.34685277 -0.17091544 68.43476327 -0.19202445 76.52270508 -0.22631836 C83.57091014 -0.25618945 90.61905192 -0.27556754 97.66731852 -0.28226548 C101.40047741 -0.28618166 105.13345523 -0.29540625 108.86655617 -0.31719017 C113.03066721 -0.34129282 117.19446205 -0.34197148 121.35864258 -0.34057617 C122.60085571 -0.351362 123.84306885 -0.36214783 125.1229248 -0.3732605 C126.25454544 -0.36913651 127.38616608 -0.36501251 128.55207825 -0.36076355 C129.53747495 -0.36352893 130.52287165 -0.36629431 131.53812885 -0.36914349 C134 0 134 0 135.8199873 1.31405163 C137.75797553 4.0829609 137.35174531 7.12639052 137.25 10.375 C137.23686768 11.08309814 137.22373535 11.79119629 137.21020508 12.52075195 C137.160559 14.6816883 137.08424025 16.84015963 137 19 C136.95746094 20.24394531 136.91492188 21.48789063 136.87109375 22.76953125 C136.56544808 28.45974325 136.2732169 32.1998669 133 37 C132.34 36.67 131.68 36.34 131 36 C131.33 35.67 131.66 35.34 132 35 C132.96904737 28.28443397 133.12379784 21.71326856 133.0625 14.9375 C133.05573242 13.49600586 133.05573242 13.49600586 133.04882812 12.02539062 C133.03717706 9.68352578 133.02082025 7.34179819 133 5 C132.33278018 4.99668985 131.66556036 4.99337971 130.97812176 4.98996925 C114.75391978 4.90879955 98.52982021 4.81672705 82.30575085 4.71247292 C74.45995731 4.66232047 66.61417436 4.6158779 58.76831055 4.578125 C51.93099977 4.54521571 45.09377052 4.50539047 38.25654966 4.45720994 C34.63525664 4.43193428 31.01401779 4.41015623 27.39266014 4.39665604 C23.35304392 4.38146716 19.31368799 4.35084025 15.27416992 4.31884766 C14.06935974 4.31668747 12.86454956 4.31452728 11.62322998 4.31230164 C10.52526596 4.30113815 9.42730194 4.28997467 8.29606628 4.2784729 C6.8622173 4.27017676 6.8622173 4.27017676 5.39940166 4.26171303 C3 4 3 4 0 2 C0 1.34 0 0.68 0 0 Z " fill="#BCBDCD" transform="translate(133,164)"/>
<path d="M0 0 C0.33 0 0.66 0 1 0 C1.06993164 0.83331345 1.13986328 1.66662689 1.21191406 2.52519226 C2.13982429 13.57941706 3.06953437 24.63349002 4 35.6875 C4.07702904 36.60283382 4.15405807 37.51816765 4.23342133 38.46123886 C6.15747976 61.3223831 8.09536745 84.18225328 10.0703125 107.0390625 C10.19802788 108.51752624 10.19802788 108.51752624 10.32832336 110.02585793 C11.01246238 117.94497162 11.69693132 125.86405685 12.38197327 133.7830925 C14.6945083 160.51804339 16.94045163 187.25630115 19.04577637 214.00839233 C20.44569704 231.77494569 22.0217892 249.51466194 23.92089844 267.23535156 C24.04276016 268.40615768 24.04276016 268.40615768 24.16708374 269.60061646 C24.38134684 271.65633819 24.60318748 273.71126632 24.82568359 275.76611328 C24.97506708 278.53744889 24.8979632 280.40887459 24 283 C21.69925842 277.27861196 21.25126693 271.5539467 20.66674805 265.47265625 C20.48096585 263.60710838 20.48096585 263.60710838 20.29143047 261.70387268 C18.21235012 240.56740043 16.46791473 219.39694449 14.65723634 198.23627853 C14.32929418 194.40552777 14.00063121 190.57483952 13.67172813 186.74417114 C12.58033311 174.03258117 11.4910852 161.3208107 10.40464977 148.608796 C10.34660607 147.92965113 10.28856237 147.25050627 10.22875977 146.55078125 C10.14158608 145.53078983 10.14158608 145.53078983 10.05265131 144.49019253 C9.10667487 133.42327723 8.15526618 122.35683628 7.20148531 111.29059112 C6.21635895 99.85989091 5.23548111 88.4288346 4.2586481 76.99742222 C3.71241956 70.60603748 3.16449343 64.21480981 2.61222267 57.82394409 C2.09430673 51.82898336 1.5817196 45.83359009 1.07314873 39.83782959 C0.8864054 37.64679727 0.69779937 35.45592273 0.50713348 33.26522827 C-1.59956086 9.03211011 -1.59956086 9.03211011 -1 1 C-0.67 0.67 -0.34 0.34 0 0 Z " fill="#B5CBF1" transform="translate(83,73)"/>
<path d="M0 0 C0.66 0.33 1.32 0.66 2 1 C3.91958053 9.35392121 2.66114548 18.06763164 1.73657227 26.4675293 C1.58802517 27.88775777 1.44041817 29.30808482 1.29367065 30.72850037 C0.89609523 34.55108991 0.48552492 38.37218037 0.07245755 42.19312263 C-0.35829414 46.19880886 -0.77687386 50.20576703 -1.1967926 54.21260071 C-1.9922399 61.78508842 -2.79849463 69.35638393 -3.60871989 76.92730314 C-4.53127245 85.55286531 -5.44164571 94.17969948 -6.35104072 102.8066572 C-8.22055925 120.53921191 -10.1052283 138.27012678 -12 156 C-12.33 156 -12.66 156 -13 156 C-13.99 150.06 -13.99 150.06 -15 144 C-14.34 144 -13.68 144 -13 144 C-12.67 135.09 -12.34 126.18 -12 117 C-11.34 117 -10.68 117 -10 117 C-10.33 113.04 -10.66 109.08 -11 105 C-10.67 105 -10.34 105 -10 105 C-9.66027199 102.18814406 -9.32809788 99.37571764 -9 96.5625 C-8.90460938 95.77939453 -8.80921875 94.99628906 -8.7109375 94.18945312 C-8.23842605 90.08872878 -7.95417124 86.09516098 -8 81.96484375 C-8 78 -8 78 -7 77 C-6.95386799 75.50070956 -6.96203748 73.99951954 -7 72.5 C-7.03796252 71.00048046 -7.04613201 69.49929044 -7 68 C-6.505 67.505 -6.505 67.505 -6 67 C-5.92820036 65.48071962 -5.91607993 63.95832518 -5.9375 62.4375 C-5.94652344 61.61121094 -5.95554687 60.78492188 -5.96484375 59.93359375 C-5.97644531 59.29550781 -5.98804688 58.65742188 -6 58 C-5.34 58 -4.68 58 -4 58 C-4.33 55.03 -4.66 52.06 -5 49 C-4.34 49 -3.68 49 -3 49 C-3.33 45.37 -3.66 41.74 -4 38 C-3.67 38 -3.34 38 -3 38 C-3 35.03 -3 32.06 -3 29 C-2.34 29 -1.68 29 -1 29 C-1.33 25.7 -1.66 22.4 -2 19 C-1.67 19 -1.34 19 -1 19 C-1 16.03 -1 13.06 -1 10 C-0.34 10 0.32 10 1 10 C0.67 6.7 0.34 3.4 0 0 Z " fill="#76ABEF" transform="translate(355,120)"/>
<path d="M0 0 C0.33 0 0.66 0 1 0 C1.06058594 0.62648438 1.12117188 1.25296875 1.18359375 1.8984375 C1.26738281 2.71570313 1.35117188 3.53296875 1.4375 4.375 C1.51871094 5.18710937 1.59992188 5.99921875 1.68359375 6.8359375 C1.89090114 9.04272805 1.89090114 9.04272805 3 11 C3.19297696 12.48843056 3.33437044 13.98371817 3.44897461 15.48022461 C3.52259216 16.41485031 3.59620972 17.34947601 3.67205811 18.31242371 C3.7860495 19.84193413 3.7860495 19.84193413 3.90234375 21.40234375 C4.02539886 22.98835136 4.02539886 22.98835136 4.15093994 24.60639954 C4.41708768 28.04980786 4.67730643 31.49363711 4.9375 34.9375 C5.11788606 37.28290527 5.29863129 39.62828295 5.47973633 41.97363281 C6.22816422 51.69594892 6.96331871 61.41922447 7.671875 71.14453125 C7.80734741 73.0018689 7.80734741 73.0018689 7.94555664 74.89672852 C8.10124761 77.05456451 8.25429345 79.21259383 8.40405273 81.37084961 C8.75385509 86.28970678 9.22629659 91.12903246 10 96 C17.81304356 99.38445205 25.78854119 101.77557024 34 104 C34 104.66 34 105.32 34 106 C28.33939202 105.35588798 23.11368125 104.03278077 17.6875 102.3125 C16.87732422 102.08111328 16.06714844 101.84972656 15.23242188 101.61132812 C14.45833984 101.36447266 13.68425781 101.11761719 12.88671875 100.86328125 C12.18764404 100.64969971 11.48856934 100.43611816 10.76831055 100.21606445 C7.99919234 98.31174611 7.77484553 96.21625696 7 93 C6.60863299 90.27214222 6.2860358 87.59137177 6.03515625 84.8515625 C5.95722336 84.058069 5.87929047 83.2645755 5.79899597 82.44703674 C5.54572038 79.84037009 5.30352637 77.23282584 5.0625 74.625 C4.88971777 72.80248366 4.71686516 70.97997399 4.54394531 69.1574707 C3.32662283 56.17715898 2.24432909 43.18667618 1.25 30.1875 C1.18515411 29.35414124 1.12030823 28.52078247 1.05349731 27.66217041 C0.34094416 18.42587898 -0.20521226 9.27217389 0 0 Z " fill="#6196E5" transform="translate(100,259)"/>
<path d="M0 0 C-1 2 -1 2 -2.88195801 2.74076843 C-3.7053064 2.97028702 -4.52865479 3.1998056 -5.37695312 3.4362793 C-6.30882446 3.6996257 -7.2406958 3.96297211 -8.20080566 4.23429871 C-9.21735229 4.51147232 -10.23389893 4.78864594 -11.28125 5.07421875 C-12.84522522 5.50635429 -12.84522522 5.50635429 -14.4407959 5.94721985 C-16.65564933 6.55575887 -18.87171714 7.15989218 -21.08886719 7.76000977 C-24.46276849 8.67737672 -27.82888469 9.62008465 -31.1953125 10.56445312 C-33.34852821 11.15261857 -35.50216217 11.73925539 -37.65625 12.32421875 C-38.65660278 12.60746506 -39.65695557 12.89071136 -40.68762207 13.18254089 C-49.22432393 15.44709877 -55.8233543 14.79820497 -64.27734375 12.44140625 C-65.91219727 11.98604492 -65.91219727 11.98604492 -67.58007812 11.52148438 C-68.68802734 11.20501953 -69.79597656 10.88855469 -70.9375 10.5625 C-72.07251953 10.24990234 -73.20753906 9.93730469 -74.37695312 9.61523438 C-82.74497768 7.25502232 -82.74497768 7.25502232 -85 5 C-82.69 5 -80.38 5 -78 5 C-78 5.66 -78 6.32 -78 7 C-77.28199219 6.79375 -76.56398437 6.5875 -75.82421875 6.375 C-72.44878007 5.92680897 -70.87696069 6.59062625 -67.8125 8 C-65.29819443 9.18519458 -65.29819443 9.18519458 -63 10 C-62.34 9.67 -61.68 9.34 -61 9 C-59.07581252 9.46445905 -57.15269379 9.93525883 -55.2421875 10.453125 C-51.85206571 11.27998397 -48.46728629 11.62850504 -45 12 C-45 11.34 -45 10.68 -45 10 C-44.3709375 9.89042969 -43.741875 9.78085937 -43.09375 9.66796875 C-37.42146687 8.61722956 -32.35759279 7.12456266 -27 5 C-23.59241395 4.06999784 -20.13176884 3.34363265 -16.6875 2.5625 C-13.03985736 1.73144337 -9.44339533 0.87324221 -5.875 -0.25 C-3 -1 -3 -1 0 0 Z " fill="#356EDD" transform="translate(271,374)"/>
<path d="M0 0 C0.33 0 0.66 0 1 0 C1.05375793 0.68569565 1.10751587 1.3713913 1.16290283 2.0778656 C1.79669928 10.15112024 2.43604145 18.2239273 3.07939911 26.29642487 C3.19275624 27.71907936 3.30600263 29.14174268 3.41913605 30.56441498 C5.02917518 50.80394158 6.75574667 71.02320308 8.91894531 91.21264648 C9.00046844 91.99646194 9.08199158 92.7802774 9.16598511 93.58784485 C9.38047882 95.6478377 9.6027276 97.70701913 9.82568359 99.76611328 C9.97506708 102.53744889 9.8979632 104.40887459 9 107 C6.63631956 101.1716085 6.22105676 95.2635741 5.625 89.0625 C5.50342529 87.83047852 5.38185059 86.59845703 5.2565918 85.32910156 C4.90465561 81.72202555 4.56726497 78.1136932 4.23297119 74.50494385 C3.98300794 71.81729864 3.7286329 69.1300892 3.47412109 66.44287109 C-0.7828603 21.24595869 -0.7828603 21.24595869 0 0 Z " fill="#A8C3F0" transform="translate(98,249)"/>
<path d="M0 0 C6.1055471 -0.02464513 12.21106551 -0.04283371 18.31665039 -0.05493164 C20.39543156 -0.05997288 22.47420916 -0.06680574 24.55297852 -0.07543945 C27.53402586 -0.08751422 30.51502649 -0.09323024 33.49609375 -0.09765625 C34.89921059 -0.10539818 34.89921059 -0.10539818 36.33067322 -0.11329651 C37.19149002 -0.11337204 38.05230682 -0.11344757 38.93920898 -0.11352539 C40.08171364 -0.11685631 40.08171364 -0.11685631 41.24729919 -0.12025452 C43 0 43 0 44 1 C44.4677847 9.40636627 43.92884207 17.90855641 43.5625 26.3125 C43.50376709 27.6895813 43.50376709 27.6895813 43.44384766 29.09448242 C43.2402775 33.41742342 42.98168442 37.73272136 42.58984375 42.04296875 C42.52531006 42.75864014 42.46077637 43.47431152 42.39428711 44.21166992 C42 46 42 46 40 48 C38.09954614 48.23338907 36.19816305 48.46147729 34.29296875 48.65234375 C31.07328427 49.14050716 28.13447152 50.18184478 25.078125 51.28125 C21.54120843 52.50454445 18.50110825 53.12501847 14.75 53.0625 C12.89375 53.0315625 12.89375 53.0315625 11 53 C14.06299319 51.32800944 17.00605435 50.37418258 20.38671875 49.52734375 C21.40701172 49.26759766 22.42730469 49.00785156 23.47851562 48.74023438 C24.53748047 48.47533203 25.59644531 48.21042969 26.6875 47.9375 C28.7963576 47.40806374 30.90447666 46.87567386 33.01171875 46.33984375 C33.94459717 46.10644287 34.87747559 45.87304199 35.83862305 45.63256836 C37.96080742 45.19920009 37.96080742 45.19920009 39 44 C39.14474321 42.59546857 39.22701682 41.18436552 39.28125 39.7734375 C39.31863281 38.90589844 39.35601562 38.03835938 39.39453125 37.14453125 C39.44673828 35.77361328 39.44673828 35.77361328 39.5 34.375 C39.56970699 32.59101753 39.64256765 30.80715518 39.71875 29.0234375 C39.74904297 28.22856934 39.77933594 27.43370117 39.81054688 26.61474609 C40.04391953 23.39384256 40.54330136 20.19689047 41 17 C41 12.05 41 7.1 41 2 C20.705 1.505 20.705 1.505 0 1 C0 0.67 0 0.34 0 0 Z " fill="#C3C4CF" transform="translate(220,236)"/>
<path d="M0 0 C0.66 0 1.32 0 2 0 C2.19010099 7.60277748 1.60976199 14.99203518 0.7578125 22.54296875 C0.62937958 23.71080399 0.50094666 24.87863922 0.36862183 26.0818634 C0.09725796 28.53526474 -0.17686398 30.98836243 -0.45361328 33.44116211 C-0.87480743 37.18578798 -1.28364968 40.93162419 -1.69140625 44.67773438 C-1.95759219 47.07039507 -2.22449472 49.46297617 -2.4921875 51.85546875 C-2.6131076 52.96915329 -2.73402771 54.08283783 -2.85861206 55.23027039 C-4.41625243 68.84076276 -4.41625243 68.84076276 -7.34375 72.83203125 C-9.33332846 74.23505946 -11.17892622 74.95636176 -13.5 75.6875 C-14.2734375 75.93886719 -15.046875 76.19023437 -15.84375 76.44921875 C-18 77 -18 77 -21 77 C-21 76.01 -21 75.02 -21 74 C-17.04 73.01 -13.08 72.02 -9 71 C-7.37508025 65.83724271 -6.50144394 60.92419061 -5.96484375 55.546875 C-5.83946983 54.37381805 -5.83946983 54.37381805 -5.71156311 53.17706299 C-5.44771521 50.7019486 -5.19200855 48.22609072 -4.9375 45.75 C-4.67842008 43.25975361 -4.41753225 40.76973443 -4.15272522 38.28009033 C-3.98886819 36.73680457 -3.82844281 35.19314963 -3.67185974 33.64910889 C-3.35140557 30.60835922 -2.97052755 27.91158265 -2 25 C-2 23.824375 -2 22.64875 -2 21.4375 C-2 18 -2 18 -1 16 C-0.7677354 13.28737884 -0.58063765 10.59226874 -0.4375 7.875 C-0.39431641 7.12089844 -0.35113281 6.36679687 -0.30664062 5.58984375 C-0.2005168 3.72678112 -0.09974999 1.86341476 0 0 Z " fill="#85B2EF" transform="translate(339,285)"/>
<path d="M0 0 C0.66 0 1.32 0 2 0 C1.9772479 3.93878938 1.90000758 7.87465887 1.8125 11.8125 C1.80669922 12.93205078 1.80089844 14.05160156 1.79492188 15.20507812 C1.76591797 16.27822266 1.73691406 17.35136719 1.70703125 18.45703125 C1.68346558 19.9416687 1.68346558 19.9416687 1.65942383 21.45629883 C1 24 1 24 -1.09375 25.71875 C-4.42814432 27.1887518 -7.67260408 28.14938948 -11.20703125 29.04296875 C-11.89125656 29.21629227 -12.57548187 29.38961578 -13.28044128 29.56819153 C-14.72247847 29.93097728 -16.16556745 30.28960492 -17.60961914 30.64428711 C-19.79858989 31.18406988 -21.98221429 31.74245092 -24.16601562 32.30273438 C-25.57523752 32.65478188 -26.98473481 33.00572914 -28.39453125 33.35546875 C-30.29489136 33.82956177 -30.29489136 33.82956177 -32.23364258 34.31323242 C-38.35285416 35.42902565 -43.90967918 35.33274166 -49.9375 33.625 C-50.87464844 33.36976563 -51.81179687 33.11453125 -52.77734375 32.8515625 C-55 32 -55 32 -56 30 C-55.3709375 30.13277344 -54.741875 30.26554687 -54.09375 30.40234375 C-52.80984375 30.66724609 -52.80984375 30.66724609 -51.5 30.9375 C-50.24703125 31.19853516 -50.24703125 31.19853516 -48.96875 31.46484375 C-47.49921875 31.72974609 -47.49921875 31.72974609 -46 32 C-44.87851563 32.25910156 -43.75703125 32.51820313 -42.6015625 32.78515625 C-36.55333838 33.50011519 -30.70226094 31.60433459 -24.90869141 30.04199219 C-22.87905449 29.50108055 -20.84181861 29.00371044 -18.80078125 28.5078125 C-10.60980224 26.45193707 -10.60980224 26.45193707 -4.01953125 21.4140625 C-3.35308594 20.28742188 -2.68664062 19.16078125 -2 18 C-2.73751094 14.87064083 -2.73751094 14.87064083 -4 12 C-2.6875 9.5625 -2.6875 9.5625 -1 7 C-0.28076792 3.30476048 -0.28076792 3.30476048 0 0 Z " fill="#224ABB" transform="translate(259,256)"/>
<path d="M0 0 C1.75508992 3.30548021 2.33736506 5.78176359 2.59765625 9.53515625 C2.71657227 11.11973633 2.71657227 11.11973633 2.83789062 12.73632812 C2.91201172 13.83396484 2.98613281 14.93160156 3.0625 16.0625 C3.21674999 18.24112173 3.37415799 20.41952282 3.53515625 22.59765625 C3.600979 23.56195557 3.66680176 24.52625488 3.73461914 25.51977539 C3.92460774 28.12965852 3.92460774 28.12965852 5 31 C5.20244766 33.28878326 5.36422048 35.58129605 5.5 37.875 C5.75904935 42.63800434 5.75904935 42.63800434 6.5 47.33764648 C7.05102547 50.27169566 7.19444982 53.0592125 7.28125 56.04296875 C7.31863281 57.19990234 7.35601562 58.35683594 7.39453125 59.54882812 C7.42933594 60.74958984 7.46414062 61.95035156 7.5 63.1875 C7.71312101 70.42177424 7.99848172 77.58231631 8.79052734 84.77758789 C9.10133457 88.07511486 9.09497478 91.31257213 9.0625 94.625 C9.05347656 95.83414063 9.04445313 97.04328125 9.03515625 98.2890625 C9.02355469 99.18367188 9.01195313 100.07828125 9 101 C8.67 101 8.34 101 8 101 C7.09808149 91.22787895 6.20227958 81.45521679 5.31375217 71.68186855 C4.90075159 67.14107816 4.48584159 62.6004811 4.06616211 58.06030273 C2.2794739 38.71726815 0.5032846 19.42836231 0 0 Z " fill="#6799E4" transform="translate(91,158)"/>
<path d="M0 0 C4.5206339 -0.07406517 9.040916 -0.12856045 13.56201172 -0.16479492 C15.10048574 -0.17989711 16.63891661 -0.20038046 18.17724609 -0.22631836 C20.38650141 -0.26264074 22.59518848 -0.27971119 24.8046875 -0.29296875 C25.83914505 -0.31619453 25.83914505 -0.31619453 26.89450073 -0.33988953 C28.83544922 -0.34057617 28.83544922 -0.34057617 32 0 C34.19164944 3.28747416 34.28679386 4.48494825 34.4140625 8.32421875 C34.47207031 9.86625977 34.47207031 9.86625977 34.53125 11.43945312 C34.5621875 12.51130859 34.593125 13.58316406 34.625 14.6875 C34.68300781 16.31268555 34.68300781 16.31268555 34.7421875 17.97070312 C34.83650509 20.64696467 34.92210005 23.32321843 35 26 C41.82904155 28.35557747 48.70957532 30.34085277 55.68945312 32.19335938 C56.82737305 32.50176758 56.82737305 32.50176758 57.98828125 32.81640625 C58.66415283 32.99631104 59.34002441 33.17621582 60.03637695 33.36157227 C62.15084439 34.04904365 64.03730506 34.96099066 66 36 C61.46545625 37.3690834 57.91516047 36.47707657 53.5 35.1875 C52.52353516 34.91969727 52.52353516 34.91969727 51.52734375 34.64648438 C47.91552258 33.63590411 44.47118387 32.40885701 41 31 C39.783125 30.71125 38.56625 30.4225 37.3125 30.125 C34 29 34 29 32.83203125 27.16796875 C29.79301607 19.24940806 31 8.94926947 31 1 C20.77 1 10.54 1 0 1 C0 0.67 0 0.34 0 0 Z " fill="#B8BDD2" transform="translate(145,254)"/>
<path d="M0 0 C1.99954746 -0.04254356 4.00041636 -0.04080783 6 0 C7.58047192 1.58047192 7.1297906 3.18542087 7.1328125 5.375 C7.13474609 6.73044922 7.13474609 6.73044922 7.13671875 8.11328125 C7.13285156 9.06589844 7.12898438 10.01851562 7.125 11 C7.12886719 11.92167969 7.13273437 12.84335938 7.13671875 13.79296875 C7.11402057 29.88597943 7.11402057 29.88597943 5 32 C3.31391034 32.07205511 1.62499341 32.08386068 -0.0625 32.0625 C-0.98160156 32.05347656 -1.90070313 32.04445312 -2.84765625 32.03515625 C-3.55792969 32.02355469 -4.26820313 32.01195312 -5 32 C-5 31.67 -5 31.34 -5 31 C-3.35 31 -1.7 31 0 31 C0.144375 30.13375 0.28875 29.2675 0.4375 28.375 C0.623125 27.26125 0.80875 26.1475 1 25 C1.2475 23.453125 1.2475 23.453125 1.5 21.875 C2.06444829 18.62942232 2.66005098 15.76488529 4 12.75 C5.30605918 9.15833726 5.61352165 5.80037045 6 2 C4.35 2 2.7 2 1 2 C0.67 1.34 0.34 0.68 0 0 Z " fill="#1230A3" transform="translate(260,168)"/>
<path d="M0 0 C37.62 0 75.24 0 114 0 C114 0.33 114 0.66 114 1 C76.38 1 38.76 1 0 1 C0 0.67 0 0.34 0 0 Z " fill="#BBC4E6" transform="translate(88,69)"/>
<path d="M0 0 C2.31 0 4.62 0 7 0 C7 0.66 7 1.32 7 2 C7.71800781 1.79375 8.43601563 1.5875 9.17578125 1.375 C12.55121993 0.92680897 14.12303931 1.59062625 17.1875 3 C19.70180557 4.18519458 19.70180557 4.18519458 22 5 C22.66 4.67 23.32 4.34 24 4 C25.88546316 4.50503478 27.77090884 5.01013498 29.65625 5.515625 C36.3609259 6.90125802 43.29665196 5.9930886 50 5 C47.16343375 6.89104417 45.10801447 7.74338609 41.875 8.6875 C40.98554688 8.95949219 40.09609375 9.23148437 39.1796875 9.51171875 C30.59388328 10.83017763 22.25302477 7.90196926 14.0625 5.5625 C12.3599707 5.09360352 12.3599707 5.09360352 10.62304688 4.61523438 C2.25502232 2.25502232 2.25502232 2.25502232 0 0 Z " fill="#2F64D9" transform="translate(186,379)"/>
<path d="M0 0 C33.66 0 67.32 0 102 0 C102 0.33 102 0.66 102 1 C68.34 1 34.68 1 0 1 C0 0.67 0 0.34 0 0 Z " fill="#7AB5F3" transform="translate(255,68)"/>
<path d="M0 0 C0.33 0 0.66 0 1 0 C1.59680387 5.76492003 2.18454472 11.53066515 2.76391602 17.29736328 C2.96227342 19.25887959 3.16310251 21.22014759 3.36645508 23.18115234 C3.65836789 26.00035921 3.9413721 28.82034034 4.22265625 31.640625 C4.31531265 32.51680481 4.40796906 33.39298462 4.50343323 34.29571533 C4.58359177 35.11626404 4.66375031 35.93681274 4.74633789 36.78222656 C4.81961807 37.50170471 4.89289825 38.22118286 4.96839905 38.96246338 C5.00225052 41.14510704 4.61945293 42.91489142 4 45 C-1.20871308 30.8182938 -0.26981198 14.87494212 0 0 Z " fill="#97B9EF" transform="translate(103,311)"/>
<path d="M0 0 C0.33 0 0.66 0 1 0 C1.02887236 3.81248426 1.04675492 7.6249407 1.0625 11.4375 C1.07087891 12.52611328 1.07925781 13.61472656 1.08789062 14.73632812 C1.09272461 16.28803711 1.09272461 16.28803711 1.09765625 17.87109375 C1.10551147 19.30859985 1.10551147 19.30859985 1.11352539 20.77514648 C1 23 1 23 0 24 C-1.155 24.12375 -2.31 24.2475 -3.5 24.375 C-7.53483601 24.82492776 -11.11121167 25.91050779 -14.921875 27.28125 C-18.45879157 28.50454445 -21.49889175 29.12501847 -25.25 29.0625 C-27.10625 29.0315625 -27.10625 29.0315625 -29 29 C-25.93700681 27.32800944 -22.99394565 26.37418258 -19.61328125 25.52734375 C-18.59298828 25.26759766 -17.57269531 25.00785156 -16.52148438 24.74023438 C-15.46251953 24.47533203 -14.40355469 24.21042969 -13.3125 23.9375 C-11.2036424 23.40806374 -9.09552334 22.87567386 -6.98828125 22.33984375 C-6.05540283 22.10644287 -5.12252441 21.87304199 -4.16137695 21.63256836 C-2.03919258 21.19920009 -2.03919258 21.19920009 -1 20 C-0.84344973 18.51361008 -0.74933057 17.02050873 -0.68359375 15.52734375 C-0.64169922 14.62822266 -0.59980469 13.72910156 -0.55664062 12.80273438 C-0.51732422 11.85720703 -0.47800781 10.91167969 -0.4375 9.9375 C-0.39431641 8.98810547 -0.35113281 8.03871094 -0.30664062 7.06054688 C-0.20020724 4.70718647 -0.09818992 2.35371646 0 0 Z " fill="#A8AEC8" transform="translate(260,260)"/>
<path d="M0 0 C0.33 0 0.66 0 1 0 C1.33947025 3.49943267 1.67044773 6.99962052 2 10.5 C2.09539062 11.48226563 2.19078125 12.46453125 2.2890625 13.4765625 C2.80588848 19.01398367 3.10592737 24.43881298 3 30 C0.5196614 27.5196614 0.0362332 25.84115575 -0.11352539 22.36450195 C-0.10828857 21.33284912 -0.10305176 20.30119629 -0.09765625 19.23828125 C-0.09443359 18.12001953 -0.09121094 17.00175781 -0.08789062 15.84960938 C-0.07951172 14.68236328 -0.07113281 13.51511719 -0.0625 12.3125 C-0.05573242 10.54422852 -0.05573242 10.54422852 -0.04882812 8.74023438 C-0.03703273 5.82677211 -0.0205727 2.91341137 0 0 Z " fill="#9DBCF0" transform="translate(98,249)"/>
<path d="M0 0 C0.66 0 1.32 0 2 0 C2 2.31 2 4.62 2 7 C-6.42857143 10.42857143 -6.42857143 10.42857143 -11 10 C-9 8 -9 8 -6.625 6.6875 C-3.71772266 4.81853599 -2.11580816 2.69947937 0 0 Z " fill="#193DB1" transform="translate(257,274)"/>
<path d="M0 0 C0.33 0 0.66 0 1 0 C1.33941704 3.97867183 1.67041655 7.95800248 2 11.9375 C2.09539062 13.05447266 2.19078125 14.17144531 2.2890625 15.32226562 C2.80242306 21.57426392 3.10643087 27.72723037 3 34 C2.67 34 2.34 34 2 34 C-0.26484591 26.79529332 -0.232284 20.00987972 -0.125 12.5 C-0.11597656 11.29601562 -0.10695313 10.09203125 -0.09765625 8.8515625 C-0.07423775 5.9008321 -0.04143993 2.95052311 0 0 Z " fill="#A9C3F1" transform="translate(91,166)"/>
<path d="M0 0 C-0.33 0.66 -0.66 1.32 -1 2 C-2.8203125 2.59765625 -2.8203125 2.59765625 -5.125 3.0625 C-6.34703125 3.31 -6.34703125 3.31 -7.59375 3.5625 C-10.71998236 4.13090588 -13.84896185 4.59153209 -17 5 C-18.9490625 5.2784375 -18.9490625 5.2784375 -20.9375 5.5625 C-21.948125 5.706875 -22.95875 5.85125 -24 6 C-23.67 5.34 -23.34 4.68 -23 4 C-20.3046875 3.21875 -20.3046875 3.21875 -16.875 2.5 C-13.15646405 1.70084096 -9.49907559 0.90595514 -5.875 -0.25 C-3 -1 -3 -1 0 0 Z " fill="#3B77E0" transform="translate(271,374)"/>
<path d="M0 0 C0.33 0 0.66 0 1 0 C1.36866745 6.5131249 1.36866745 6.5131249 -0.23046875 8.625 C-2.26698841 10.20746119 -4.04409129 10.91388876 -6.5 11.6875 C-7.66015625 12.06455078 -7.66015625 12.06455078 -8.84375 12.44921875 C-11 13 -11 13 -14 13 C-14 12.01 -14 11.02 -14 10 C-10.04 9.01 -6.08 8.02 -2 7 C-1.34 4.69 -0.68 2.38 0 0 Z " fill="#73A3EC" transform="translate(332,349)"/>
<path d="M0 0 C7.21471629 -0.35482211 13.12418702 0.8408662 20 3 C17 5 17 5 15.09887695 4.85986328 C14.05413208 4.59278564 14.05413208 4.59278564 12.98828125 4.3203125 C12.23095703 4.13339844 11.47363281 3.94648438 10.69335938 3.75390625 C9.90767578 3.54636719 9.12199219 3.33882813 8.3125 3.125 C7.51521484 2.92519531 6.71792969 2.72539062 5.89648438 2.51953125 C3.92807177 2.02448137 1.96362125 1.51372578 0 1 C0 0.67 0 0.34 0 0 Z " fill="#C3C7D7" transform="translate(191,286)"/>
<path d="M0 0 C1.99954746 -0.04254356 4.00041636 -0.04080783 6 0 C7 1 7 1 7.11352539 3.04125977 C7.10828857 3.91580811 7.10305176 4.79035645 7.09765625 5.69140625 C7.09443359 6.63564453 7.09121094 7.57988281 7.08789062 8.55273438 C7.07951172 9.54595703 7.07113281 10.53917969 7.0625 11.5625 C7.05798828 12.55958984 7.05347656 13.55667969 7.04882812 14.58398438 C7.03700007 17.05604849 7.02051849 19.52799518 7 22 C6.67 22 6.34 22 6 22 C3.99647911 14.75650138 3.99647911 9.24349862 6 2 C4.35 2 2.7 2 1 2 C0.67 1.34 0.34 0.68 0 0 Z " fill="#1A37A8" transform="translate(260,168)"/>
<path d="M0 0 C2.69082872 0.17635452 5.32851446 0.61835921 8 1 C8 1.33 8 1.66 8 2 C5.69 2 3.38 2 1 2 C1 6.62 1 11.24 1 16 C-1 14 -1 14 -1.23046875 10.99609375 C-1.21628906 9.82175781 -1.20210938 8.64742187 -1.1875 7.4375 C-1.17783203 5.67212891 -1.17783203 5.67212891 -1.16796875 3.87109375 C-1 1 -1 1 0 0 Z " fill="#D0D5E0" transform="translate(129,128)"/>
<path d="M0 0 C0.33 0 0.66 0 1 0 C1 5.28 1 10.56 1 16 C-0.65 16.33 -2.3 16.66 -4 17 C-2.125 11.25 -2.125 11.25 -1 9 C-0.77532169 7.46331135 -0.59203195 5.92031946 -0.4375 4.375 C-0.35371094 3.55773437 -0.26992188 2.74046875 -0.18359375 1.8984375 C-0.12300781 1.27195313 -0.06242187 0.64546875 0 0 Z " fill="#0A2192" transform="translate(265,183)"/>
<path d="M0 0 C1.21236328 0.02707031 1.21236328 0.02707031 2.44921875 0.0546875 C3.37154297 0.08949219 3.37154297 0.08949219 4.3125 0.125 C1.225011 1.79981715 -1.80129928 2.82902783 -5.1875 3.75 C-6.59515625 4.14058594 -6.59515625 4.14058594 -8.03125 4.5390625 C-10.6875 5.125 -10.6875 5.125 -14.6875 5.125 C-14.3575 4.135 -14.0275 3.145 -13.6875 2.125 C-12.2953125 2.186875 -12.2953125 2.186875 -10.875 2.25 C-6.6467903 2.08418785 -4.39014039 -0.12725045 0 0 Z " fill="#5D90E6" transform="translate(313.6875,361.875)"/>
<path d="M0 0 C2.64 0 5.28 0 8 0 C8 0.66 8 1.32 8 2 C9.98 2 11.96 2 14 2 C14 2.99 14 3.98 14 5 C12.03964825 4.55037804 10.08175691 4.09001752 8.125 3.625 C7.03445312 3.36976563 5.94390625 3.11453125 4.8203125 2.8515625 C2 2 2 2 0 0 Z " fill="#3D75DE" transform="translate(172,375)"/>
<path d="M0 0 C0.33 0 0.66 0 1 0 C1.05423638 1.91635217 1.09289963 3.83314925 1.125 5.75 C1.14820313 6.81734375 1.17140625 7.8846875 1.1953125 8.984375 C1.00487687 11.92470106 0.52670104 13.52361878 -1 16 C-1.22127098 13.70954632 -1.4266504 11.41755236 -1.625 9.125 C-1.74101562 7.84882812 -1.85703125 6.57265625 -1.9765625 5.2578125 C-1.98816406 3.64519531 -1.98816406 3.64519531 -2 2 C-1.34 1.34 -0.68 0.68 0 0 Z " fill="#68A3ED" transform="translate(358,110)"/>
<path d="M0 0 C0.33 0 0.66 0 1 0 C0.67 4.95 0.34 9.9 0 15 C-0.33 15 -0.66 15 -1 15 C-1.66 11.04 -2.32 7.08 -3 3 C-2.34 3 -1.68 3 -1 3 C-0.67 2.01 -0.34 1.02 0 0 Z " fill="#8AB6F0" transform="translate(343,261)"/>
<path d="M0 0 C0.99 0.33 1.98 0.66 3 1 C2.64766839 6.4611399 2.64766839 6.4611399 2 9 C-0.0625 10.5 -0.0625 10.5 -2 11 C-1.67 10.34 -1.34 9.68 -1 9 C-0.77532169 7.46331135 -0.59203195 5.92031946 -0.4375 4.375 C-0.35371094 3.55773437 -0.26992188 2.74046875 -0.18359375 1.8984375 C-0.12300781 1.27195313 -0.06242187 0.64546875 0 0 Z " fill="#B5B8C8" transform="translate(266,190)"/>
<path d="M0 0 C-0.33 0.99 -0.66 1.98 -1 3 C-2.98 3.33 -4.96 3.66 -7 4 C-7 3.01 -7 2.02 -7 1 C-4 0 -4 0 0 0 Z " fill="#5B91E5" transform="translate(325,358)"/>
<path d="M0 0 C0.33 0 0.66 0 1 0 C1 2.31 1 4.62 1 7 C-0.65 7.33 -2.3 7.66 -4 8 C-2.68 5.36 -1.36 2.72 0 0 Z " fill="#102EA4" transform="translate(258,274)"/>
<path d="M0 0 C0.33 0 0.66 0 1 0 C1 3.63 1 7.26 1 11 C0.67 11 0.34 11 0 11 C0 7.37 0 3.74 0 0 Z " fill="#B8CCEF" transform="translate(80,75)"/>
<path d="M0 0 C0.33 0 0.66 0 1 0 C1 3.63 1 7.26 1 11 C0.67 11 0.34 11 0 11 C0 7.37 0 3.74 0 0 Z " fill="#619FEA" transform="translate(364,73)"/>
<path d="M0 0 C0.33 0 0.66 0 1 0 C1 3.3 1 6.6 1 10 C0.67 10 0.34 10 0 10 C0 6.7 0 3.4 0 0 Z " fill="#93B3E9" transform="translate(100,310)"/>
<path d="M0 0 C0.33 0 0.66 0 1 0 C1 3.3 1 6.6 1 10 C0.67 10 0.34 10 0 10 C0 6.7 0 3.4 0 0 Z " fill="#A0BCEC" transform="translate(99,299)"/>
<path d="M0 0 C0.33 0 0.66 0 1 0 C1 3.3 1 6.6 1 10 C0.67 10 0.34 10 0 10 C0 6.7 0 3.4 0 0 Z " fill="#9AB5E7" transform="translate(98,287)"/>
<path d="M0 0 C0.33 0 0.66 0 1 0 C1 3.3 1 6.6 1 10 C0.67 10 0.34 10 0 10 C0 6.7 0 3.4 0 0 Z " fill="#A1BBE9" transform="translate(96,263)"/>
<path d="M0 0 C0.33 0 0.66 0 1 0 C1 3.3 1 6.6 1 10 C0.67 10 0.34 10 0 10 C0 6.7 0 3.4 0 0 Z " fill="#A1BBEA" transform="translate(95,251)"/>
<path d="M0 0 C0.33 0 0.66 0 1 0 C1 3.3 1 6.6 1 10 C0.67 10 0.34 10 0 10 C0 6.7 0 3.4 0 0 Z " fill="#ACC2EC" transform="translate(94,240)"/>
<path d="M0 0 C0.33 0 0.66 0 1 0 C1 3.3 1 6.6 1 10 C0.67 10 0.34 10 0 10 C0 6.7 0 3.4 0 0 Z " fill="#A5BCE7" transform="translate(93,228)"/>
<path d="M0 0 C0.33 0 0.66 0 1 0 C1 3.3 1 6.6 1 10 C0.67 10 0.34 10 0 10 C0 6.7 0 3.4 0 0 Z " fill="#A6BDE9" transform="translate(92,216)"/>
<path d="M0 0 C0.33 0 0.66 0 1 0 C1 3.3 1 6.6 1 10 C0.67 10 0.34 10 0 10 C0 6.7 0 3.4 0 0 Z " fill="#AAC1EB" transform="translate(91,204)"/>
<path d="M0 0 C0.33 0 0.66 0 1 0 C1 3.3 1 6.6 1 10 C0.67 10 0.34 10 0 10 C0 6.7 0 3.4 0 0 Z " fill="#B2C7EE" transform="translate(90,193)"/>
<path d="M0 0 C0.33 0 0.66 0 1 0 C1 3.3 1 6.6 1 10 C0.67 10 0.34 10 0 10 C0 6.7 0 3.4 0 0 Z " fill="#A8BDE8" transform="translate(89,181)"/>
<path d="M0 0 C0.33 0 0.66 0 1 0 C1 3.3 1 6.6 1 10 C0.67 10 0.34 10 0 10 C0 6.7 0 3.4 0 0 Z " fill="#A4BCE9" transform="translate(87,157)"/>
<path d="M0 0 C0.33 0 0.66 0 1 0 C1 3.3 1 6.6 1 10 C0.67 10 0.34 10 0 10 C0 6.7 0 3.4 0 0 Z " fill="#B1C6ED" transform="translate(86,146)"/>
<path d="M0 0 C0.33 0 0.66 0 1 0 C1 3.3 1 6.6 1 10 C0.67 10 0.34 10 0 10 C0 6.7 0 3.4 0 0 Z " fill="#A6BDEB" transform="translate(81,88)"/>
<path d="M0 0 C0.33 0 0.66 0 1 0 C1 2.97 1 5.94 1 9 C0.67 9 0.34 9 0 9 C0 6.03 0 3.06 0 0 Z " fill="#87AAE6" transform="translate(101,322)"/>
<path d="M0 0 C0.33 0 0.66 0 1 0 C1 2.97 1 5.94 1 9 C0.67 9 0.34 9 0 9 C0 6.03 0 3.06 0 0 Z " fill="#A3BDEA" transform="translate(97,276)"/>
<path d="M0 0 C0.33 0 0.66 0 1 0 C1 2.97 1 5.94 1 9 C0.67 9 0.34 9 0 9 C0 6.03 0 3.06 0 0 Z " fill="#6D9CE4" transform="translate(343,276)"/>
<path d="M0 0 C0.33 0 0.66 0 1 0 C1 2.97 1 5.94 1 9 C0.67 9 0.34 9 0 9 C0 6.03 0 3.06 0 0 Z " fill="#AFC3EB" transform="translate(88,170)"/>
<path d="M0 0 C0.33 0 0.66 0 1 0 C1 2.97 1 5.94 1 9 C0.67 9 0.34 9 0 9 C0 6.03 0 3.06 0 0 Z " fill="#B1C5ED" transform="translate(85,135)"/>
<path d="M0 0 C0.33 0 0.66 0 1 0 C1 2.97 1 5.94 1 9 C0.67 9 0.34 9 0 9 C0 6.03 0 3.06 0 0 Z " fill="#B1C5EC" transform="translate(84,124)"/>
<path d="M0 0 C0.33 0 0.66 0 1 0 C1 2.97 1 5.94 1 9 C0.67 9 0.34 9 0 9 C0 6.03 0 3.06 0 0 Z " fill="#ACC2EA" transform="translate(83,112)"/>
<path d="M0 0 C0.33 0 0.66 0 1 0 C1 2.97 1 5.94 1 9 C0.67 9 0.34 9 0 9 C0 6.03 0 3.06 0 0 Z " fill="#A9C0EA" transform="translate(82,100)"/>
<path d="M0 0 C0.33 0 0.66 0 1 0 C1 2.64 1 5.28 1 8 C0.67 8 0.34 8 0 8 C0 5.36 0 2.72 0 0 Z " fill="#8FB1E7" transform="translate(102,334)"/>
<path d="M0 0 C0.33 0 0.66 0 1 0 C1 2.64 1 5.28 1 8 C0.67 8 0.34 8 0 8 C0 5.36 0 2.72 0 0 Z " fill="#7099E5" transform="translate(337,333)"/>
<path d="M0 0 C0.33 0 0.66 0 1 0 C1 2.64 1 5.28 1 8 C0.67 8 0.34 8 0 8 C0 5.36 0 2.72 0 0 Z " fill="#7197E2" transform="translate(338,324)"/>
<path d="M0 0 C0.33 0 0.66 0 1 0 C1 2.64 1 5.28 1 8 C0.67 8 0.34 8 0 8 C0 5.36 0 2.72 0 0 Z " fill="#76A4E6" transform="translate(339,315)"/>
<path d="M0 0 C0.33 0 0.66 0 1 0 C1 2.64 1 5.28 1 8 C0.67 8 0.34 8 0 8 C0 5.36 0 2.72 0 0 Z " fill="#6CA0E7" transform="translate(340,305)"/>
<path d="M0 0 C0.33 0 0.66 0 1 0 C1 2.64 1 5.28 1 8 C0.67 8 0.34 8 0 8 C0 5.36 0 2.72 0 0 Z " fill="#6BA1E7" transform="translate(341,295)"/>
<path d="M0 0 C0.33 0 0.66 0 1 0 C1 2.64 1 5.28 1 8 C0.67 8 0.34 8 0 8 C0 5.36 0 2.72 0 0 Z " fill="#79A8EA" transform="translate(342,286)"/>
<path d="M0 0 C0.33 0 0.66 0 1 0 C1 2.64 1 5.28 1 8 C0.67 8 0.34 8 0 8 C0 5.36 0 2.72 0 0 Z " fill="#71A3E8" transform="translate(344,267)"/>
<path d="M0 0 C0.33 0 0.66 0 1 0 C1 2.64 1 5.28 1 8 C0.67 8 0.34 8 0 8 C0 5.36 0 2.72 0 0 Z " fill="#699FE9" transform="translate(346,247)"/>
<path d="M0 0 C0.33 0 0.66 0 1 0 C1 2.64 1 5.28 1 8 C0.67 8 0.34 8 0 8 C0 5.36 0 2.72 0 0 Z " fill="#71A4EA" transform="translate(347,238)"/>
<path d="M0 0 C0.33 0 0.66 0 1 0 C1 2.64 1 5.28 1 8 C0.67 8 0.34 8 0 8 C0 5.36 0 2.72 0 0 Z " fill="#6298E5" transform="translate(348,228)"/>
<path d="M0 0 C0.33 0 0.66 0 1 0 C1 2.64 1 5.28 1 8 C0.67 8 0.34 8 0 8 C0 5.36 0 2.72 0 0 Z " fill="#5994E4" transform="translate(349,218)"/>
<path d="M0 0 C0.33 0 0.66 0 1 0 C1 2.64 1 5.28 1 8 C0.67 8 0.34 8 0 8 C0 5.36 0 2.72 0 0 Z " fill="#5791E5" transform="translate(350,208)"/>
<path d="M0 0 C0.33 0 0.66 0 1 0 C1 2.64 1 5.28 1 8 C0.67 8 0.34 8 0 8 C0 5.36 0 2.72 0 0 Z " fill="#609AE8" transform="translate(351,199)"/>
<path d="M0 0 C0.33 0 0.66 0 1 0 C1 2.64 1 5.28 1 8 C0.67 8 0.34 8 0 8 C0 5.36 0 2.72 0 0 Z " fill="#669EE8" transform="translate(352,190)"/>
<path d="M0 0 C0.33 0 0.66 0 1 0 C1 2.64 1 5.28 1 8 C0.67 8 0.34 8 0 8 C0 5.36 0 2.72 0 0 Z " fill="#5B92E5" transform="translate(353,180)"/>
<path d="M0 0 C0.33 0 0.66 0 1 0 C1 2.64 1 5.28 1 8 C0.67 8 0.34 8 0 8 C0 5.36 0 2.72 0 0 Z " fill="#5396E6" transform="translate(354,170)"/>
<path d="M0 0 C0.33 0 0.66 0 1 0 C1 2.64 1 5.28 1 8 C0.67 8 0.34 8 0 8 C0 5.36 0 2.72 0 0 Z " fill="#629EEA" transform="translate(355,161)"/>
<path d="M0 0 C0.33 0 0.66 0 1 0 C1 2.64 1 5.28 1 8 C0.67 8 0.34 8 0 8 C0 5.36 0 2.72 0 0 Z " fill="#69A2EB" transform="translate(356,152)"/>
<path d="M0 0 C0.33 0 0.66 0 1 0 C1 2.64 1 5.28 1 8 C0.67 8 0.34 8 0 8 C0 5.36 0 2.72 0 0 Z " fill="#5894E4" transform="translate(357,142)"/>
<path d="M0 0 C0.33 0 0.66 0 1 0 C1 2.64 1 5.28 1 8 C0.67 8 0.34 8 0 8 C0 5.36 0 2.72 0 0 Z " fill="#5C9CE9" transform="translate(359,123)"/>
<path d="M0 0 C0.33 0 0.66 0 1 0 C1 2.64 1 5.28 1 8 C0.67 8 0.34 8 0 8 C0 5.36 0 2.72 0 0 Z " fill="#619DEA" transform="translate(360,114)"/>
<path d="M0 0 C0.33 0 0.66 0 1 0 C1 2.64 1 5.28 1 8 C0.67 8 0.34 8 0 8 C0 5.36 0 2.72 0 0 Z " fill="#619CE9" transform="translate(361,105)"/>
<path d="M0 0 C0.33 0 0.66 0 1 0 C1 2.64 1 5.28 1 8 C0.67 8 0.34 8 0 8 C0 5.36 0 2.72 0 0 Z " fill="#4C8FE4" transform="translate(363,85)"/>
<path d="M0 0 C0.33 0 0.66 0 1 0 C1 2.31 1 4.62 1 7 C0.67 7 0.34 7 0 7 C0 4.69 0 2.38 0 0 Z " fill="#689FE7" transform="translate(345,257)"/>
<path d="M0 0 C0.33 0 0.66 0 1 0 C1 2.31 1 4.62 1 7 C0.67 7 0.34 7 0 7 C0 4.69 0 2.38 0 0 Z " fill="#5B99E7" transform="translate(358,133)"/>
<path d="M0 0 C0.33 0 0.66 0 1 0 C1 2.31 1 4.62 1 7 C0.67 7 0.34 7 0 7 C0 4.69 0 2.38 0 0 Z " fill="#5B98E7" transform="translate(362,96)"/>
<path d="M0 0 C0.33 0 0.66 0 1 0 C1 1.98 1 3.96 1 6 C0.67 6 0.34 6 0 6 C0 4.02 0 2.04 0 0 Z " fill="#93B4EB" transform="translate(103,344)"/>
<path d="M0 0 C0.33 0 0.66 0 1 0 C1 1.98 1 3.96 1 6 C0.67 6 0.34 6 0 6 C0 4.02 0 2.04 0 0 Z " fill="#629AE4" transform="translate(336,342)"/>
<path d="M0 0 C4 1 4 1 4 1 Z " fill="#2B5ECE" transform="translate(222,389)"/>
<path d="M0 0 C4 1 4 1 4 1 Z " fill="#2759CB" transform="translate(213,389)"/>
<path d="M0 0 C1 4 1 4 1 4 Z " fill="#76A3E7" transform="translate(335,350)"/>
<path d="M0 0 C3 1 3 1 3 1 Z " fill="#2C5BD9" transform="translate(218,390)"/>
<path d="M0 0 C3 1 3 1 3 1 Z " fill="#2D5FCB" transform="translate(226,388)"/>
<path d="M0 0 C3 1 3 1 3 1 Z " fill="#2A59C9" transform="translate(210,388)"/>
<path d="M0 0 C3 1 3 1 3 1 Z " fill="#2D5ED2" transform="translate(230,387)"/>
<path d="M0 0 C3 1 3 1 3 1 Z " fill="#2B5BD0" transform="translate(206,387)"/>
<path d="M0 0 C3 1 3 1 3 1 Z " fill="#3165D7" transform="translate(234,386)"/>
<path d="M0 0 C3 1 3 1 3 1 Z " fill="#2F61CB" transform="translate(203,386)"/>
<path d="M0 0 C3 1 3 1 3 1 Z " fill="#2D61CF" transform="translate(237,385)"/>
<path d="M0 0 C3 1 3 1 3 1 Z " fill="#2A5FD2" transform="translate(199,385)"/>
<path d="M0 0 C3 1 3 1 3 1 Z " fill="#2F62D2" transform="translate(241,384)"/>
<path d="M0 0 C3 1 3 1 3 1 Z " fill="#3167D7" transform="translate(195,384)"/>
<path d="M0 0 C3 1 3 1 3 1 Z " fill="#336ADA" transform="translate(245,383)"/>
<path d="M0 0 C3 1 3 1 3 1 Z " fill="#2E60CD" transform="translate(192,383)"/>
<path d="M0 0 C3 1 3 1 3 1 Z " fill="#2D62CF" transform="translate(248,382)"/>
<path d="M0 0 C3 1 3 1 3 1 Z " fill="#3166D8" transform="translate(188,382)"/>
<path d="M0 0 C3 1 3 1 3 1 Z " fill="#356BD7" transform="translate(252,381)"/>
<path d="M0 0 C3 1 3 1 3 1 Z " fill="#2E66D1" transform="translate(185,381)"/>
<path d="M0 0 C3 1 3 1 3 1 Z " fill="#376DD8" transform="translate(256,380)"/>
<path d="M0 0 C3 1 3 1 3 1 Z " fill="#386CD6" transform="translate(181,380)"/>
<path d="M0 0 C3 1 3 1 3 1 Z " fill="#3168CF" transform="translate(259,379)"/>
<path d="M0 0 C3 1 3 1 3 1 Z " fill="#3F73DB" transform="translate(177,379)"/>
<path d="M0 0 C3 1 3 1 3 1 Z " fill="#3C70D8" transform="translate(263,378)"/>
<path d="M0 0 C3 1 3 1 3 1 Z " fill="#396ED5" transform="translate(174,378)"/>
<path d="M0 0 C3 1 3 1 3 1 Z " fill="#3F75DD" transform="translate(267,377)"/>
<path d="M0 0 C3 1 3 1 3 1 Z " fill="#4277DD" transform="translate(170,377)"/>
<path d="M0 0 C3 1 3 1 3 1 Z " fill="#346ED6" transform="translate(270,376)"/>
<path d="M0 0 C3 1 3 1 3 1 Z " fill="#356BD5" transform="translate(167,376)"/>
<path d="M0 0 C3 1 3 1 3 1 Z " fill="#3C72D9" transform="translate(274,375)"/>
<path d="M0 0 C3 1 3 1 3 1 Z " fill="#4277D9" transform="translate(163,375)"/>
<path d="M0 0 C3 1 3 1 3 1 Z " fill="#467BDE" transform="translate(278,374)"/>
<path d="M0 0 C3 1 3 1 3 1 Z " fill="#497EE0" transform="translate(159,374)"/>
<path d="M0 0 C3 1 3 1 3 1 Z " fill="#3470D9" transform="translate(281,373)"/>
<path d="M0 0 C3 1 3 1 3 1 Z " fill="#467ADB" transform="translate(156,373)"/>
<path d="M0 0 C3 1 3 1 3 1 Z " fill="#467CDD" transform="translate(285,372)"/>
<path d="M0 0 C3 1 3 1 3 1 Z " fill="#4D82E0" transform="translate(152,372)"/>
<path d="M0 0 C3 1 3 1 3 1 Z " fill="#4E82E0" transform="translate(289,371)"/>
<path d="M0 0 C3 1 3 1 3 1 Z " fill="#3A73D7" transform="translate(149,371)"/>
<path d="M0 0 C3 1 3 1 3 1 Z " fill="#3A72D5" transform="translate(292,370)"/>
<path d="M0 0 C3 1 3 1 3 1 Z " fill="#5285DF" transform="translate(145,370)"/>
<path d="M0 0 C3 1 3 1 3 1 Z " fill="#4B7FDE" transform="translate(296,369)"/>
<path d="M0 0 C3 1 3 1 3 1 Z " fill="#3D71D0" transform="translate(142,369)"/>
<path d="M0 0 C3 1 3 1 3 1 Z " fill="#5387E2" transform="translate(300,368)"/>
<path d="M0 0 C3 1 3 1 3 1 Z " fill="#5588E0" transform="translate(138,368)"/>
<path d="M0 0 C3 1 3 1 3 1 Z " fill="#4077D9" transform="translate(303,367)"/>
<path d="M0 0 C3 1 3 1 3 1 Z " fill="#5D8EE1" transform="translate(134,367)"/>
<path d="M0 0 C3 1 3 1 3 1 Z " fill="#4B81DD" transform="translate(307,366)"/>
<path d="M0 0 C3 1 3 1 3 1 Z " fill="#4C81DA" transform="translate(131,366)"/>
<path d="M0 0 C3 1 3 1 3 1 Z " fill="#5B8DE2" transform="translate(311,365)"/>
<path d="M0 0 C3 1 3 1 3 1 Z " fill="#6191E3" transform="translate(127,365)"/>
<path d="M0 0 C3 1 3 1 3 1 Z " fill="#4E82DD" transform="translate(314,364)"/>
<path d="M0 0 C3 1 3 1 3 1 Z " fill="#4F7FD8" transform="translate(124,364)"/>
<path d="M0 0 C3 1 3 1 3 1 Z " fill="#6696E4" transform="translate(318,363)"/>
<path d="M0 0 C3 1 3 1 3 1 Z " fill="#6A96E3" transform="translate(120,363)"/>
<path d="M0 0 C3 1 3 1 3 1 Z " fill="#4779D9" transform="translate(321,362)"/>
<path d="M0 0 C3 1 3 1 3 1 Z " fill="#4F81DA" transform="translate(117,362)"/>
<path d="" fill="#87ADE9" transform="translate(0,0)"/>
<path d="M0 0 C2 1 2 1 2 1 Z " fill="#6A98E4" transform="translate(325,361)"/>
<path d="M0 0 C2 1 2 1 2 1 Z " fill="#749CE4" transform="translate(114,361)"/>
<path d="M0 0 C2 1 2 1 2 1 Z " fill="#81A9E9" transform="translate(111,360)"/>
<path d="" fill="#5A91E2" transform="translate(0,0)"/>
<path d="" fill="#76A0E4" transform="translate(0,0)"/>
<path d="M0 0 C2 1 2 1 2 1 Z " fill="#579DEB" transform="translate(84,70)"/>
<path d="M0 0 C2 1 2 1 2 1 Z " fill="#539BE9" transform="translate(359,69)"/>
<path d="" fill="#6B98E4" transform="translate(0,0)"/>
<path d="" fill="#6F9BE6" transform="translate(0,0)"/>
<path d="" fill="#6996E1" transform="translate(0,0)"/>
<path d="" fill="#4783DD" transform="translate(0,0)"/>
<path d="" fill="#87ACEB" transform="translate(0,0)"/>
<path d="" fill="#2B6DD5" transform="translate(0,0)"/>
<path d="" fill="#81A8E7" transform="translate(0,0)"/>
<path d="" fill="#5B8EE0" transform="translate(0,0)"/>
<path d="" fill="#82A8E7" transform="translate(0,0)"/>
<path d="" fill="#7BABEC" transform="translate(0,0)"/>
<path d="" fill="#6A97E5" transform="translate(0,0)"/>
<path d="" fill="#75A5EA" transform="translate(0,0)"/>
</svg>
